<?xml version="1.0" encoding="utf-8"?>
<!-- Generator: Adobe Illustrator 25.2.0, SVG Export Plug-In . SVG Version: 6.00 Build 0)  -->
<svg version="1.1" xmlns="http://www.w3.org/2000/svg" xmlns:xlink="http://www.w3.org/1999/xlink" x="0px" y="0px"
	 viewBox="0 0 500 500" style="enable-background:new 0 0 500 500;" xml:space="preserve">
<style type="text/css">
	.st0{fill:#E6E6E6;}
	.st1{fill:#E0E0E0;}
	.st2{fill:#FAFAFA;}
	.st3{fill:#F5F5F5;}
	.st4{fill:#F0F0F0;}
	.st5{fill:#FFFFFF;}
	.st6{display:none;}
	.st7{display:inline;}
	.st8{fill:#407BFF;}
	.st9{opacity:0.56;fill:#FAFAFA;}
	.st10{opacity:7.000000e-02;fill:#407BFF;}
	.st11{opacity:0.47;fill:#407BFF;}
	.st12{fill:#263238;}
	.st13{opacity:0.1;fill:#FFFFFF;}
</style>
<g id="Background_complete">
	<g>
		<g>
			<rect y="382.4" class="st0" width="500" height="0.3"/>
			<rect x="91.7" y="397.5" class="st0" width="33.1" height="0.3"/>
			<rect x="62" y="397.5" class="st0" width="19.2" height="0.3"/>
			<rect x="191.4" y="401.2" class="st0" width="19.2" height="0.3"/>
			<rect x="267.4" y="406.8" class="st0" width="43.2" height="0.3"/>
			<rect x="252.2" y="406.8" class="st0" width="6.3" height="0.3"/>
			<rect x="359.7" y="401.2" class="st0" width="93.7" height="0.3"/>
		</g>
		<g>
			<rect x="245.4" y="297" class="st1" width="22" height="87.2"/>
			<polygon class="st2" points="263.2,384.2 267.4,384.2 267.4,372.3 258.8,372.3 			"/>
			<rect x="149.1" y="297" class="st1" width="22" height="87.2"/>
			<rect x="167.4" y="297" class="st2" width="100" height="79.9"/>
			<path class="st1" d="M263.8,300.9v21.2H171v-21.2H263.8 M264.2,300.5h-93.5v21.9h93.5V300.5L264.2,300.5z"/>
			<polygon class="st2" points="171.6,384.2 167.4,384.2 167.4,372.3 176,372.3 			"/>
			<path class="st0" d="M215.2,311.5c0,1.2,1,2.2,2.2,2.2c1.2,0,2.2-1,2.2-2.2c0-1.2-1-2.2-2.2-2.2
				C216.2,309.3,215.2,310.3,215.2,311.5z"/>
			<path class="st1" d="M263.8,326.4v21.2H171v-21.2H263.8 M264.2,326h-93.5v21.9h93.5V326L264.2,326z"/>
			<path class="st0" d="M215.2,336.9c0,1.2,1,2.2,2.2,2.2c1.2,0,2.2-1,2.2-2.2s-1-2.2-2.2-2.2C216.2,334.7,215.2,335.7,215.2,336.9z
				"/>
			<path class="st1" d="M263.8,351.8V373H171v-21.2H263.8 M264.2,351.5h-93.5v21.9h93.5V351.5L264.2,351.5z"/>
			<path class="st0" d="M215.2,362.4c0,1.2,1,2.2,2.2,2.2c1.2,0,2.2-1,2.2-2.2s-1-2.2-2.2-2.2C216.2,360.2,215.2,361.2,215.2,362.4z
				"/>
		</g>
		<g>
			<rect x="135.6" y="246.3" class="st1" width="22" height="137.9"/>
			<polygon class="st2" points="153.4,384.2 157.6,384.2 157.6,372.3 149.1,372.3 			"/>
			<rect x="53.4" y="246.3" class="st1" width="22" height="137.9"/>
			<rect x="71.8" y="246.3" class="st2" width="85.8" height="130.6"/>
			<path class="st1" d="M153.9,250v29.6H75.5V250H153.9 M154.4,249.6H75V280h79.3V249.6L154.4,249.6z"/>
			<path class="st1" d="M153.9,283.2v78.4h-37.4v-78.4H153.9 M154.4,282.7h-38.3v79.3h38.3V282.7L154.4,282.7z"/>
			<path class="st1" d="M112.8,283.2v78.4H75.5v-78.4H112.8 M113.3,282.7H75v79.3h38.3V282.7L113.3,282.7z"/>
			<polygon class="st2" points="76,384.2 71.8,384.2 71.8,372.3 80.3,372.3 			"/>
			<path class="st0" d="M112.5,264.8c0,1.2,1,2.2,2.2,2.2c1.2,0,2.2-1,2.2-2.2c0-1.2-1-2.2-2.2-2.2
				C113.5,262.6,112.5,263.6,112.5,264.8z"/>
			<path class="st0" d="M120.4,320.5c0,1.2,1,2.2,2.2,2.2c1.2,0,2.2-1,2.2-2.2c0-1.2-1-2.2-2.2-2.2
				C121.4,318.3,120.4,319.3,120.4,320.5z"/>
			<path class="st0" d="M104.6,320.5c0,1.2,1,2.2,2.2,2.2c1.2,0,2.2-1,2.2-2.2c0-1.2-1-2.2-2.2-2.2
				C105.6,318.3,104.6,319.3,104.6,320.5z"/>
		</g>
		<path class="st1" d="M102.1,207.9h-9.3c0,0,1.6,8.6,1.6,13.6c0,5-7.1,24.8,3,24.8c10.1,0,3-19.8,3-24.8
			C100.5,216.4,102.1,207.9,102.1,207.9z"/>
		<path class="st3" d="M66.8,228.1v6c0,6.7,5.5,12.1,12.1,12.1h6c6.7,0,12.1-5.5,12.1-12.1v-6H66.8z"/>
		<path class="st1" d="M195.7,284.3c0,7,7.8,12.7,17.4,12.7h8.6c9.6,0,17.4-5.7,17.4-12.7H195.7z"/>
		<g>
			<path class="st1" d="M424.6,274c-5.2,4.3-12.5,12.1-19.1,23.1c-4.4,7.3-7.1,15-8.2,25.2c0-11.5,0.1-23.9,0.1-35.5
				c1.3-3,4.4-9.9,6.6-15.4c7.3-18.2,10-22.7,16.5-38.4c8.7-21,17.7-45.9,15.1-43.9c-5.2,4.1-25.2,41.5-27.4,46.9
				c-7.4,18.4-9.5,31.9-10.8,44.9c0-11,0.1-21,0.1-28.8c0.1-25.3,0.6-33.5,0.8-36c0.8-1.3,1.8-2.8,2.3-3.6
				c4.7-6.8,6.5-12.6,10.9-22.7c6.3-14.4,11.7-39.8,10.1-38.6c-6.6,5.4-11.8,16.9-18.6,31.5c-6.8,14.7-4.9,23.1-6.2,35.6
				c-0.3,2.5-0.5,11.7-0.7,24.6c-1.8-13.7-5.1-22.7-11.1-30.9c-7.4-10.1-14.6-16.9-19.9-20.5c-5.3-3.6,9.1,21.2,16,32
				c6.1,9.6,11.8,18.1,15,26.5c-0.2,17.4-0.2,39.5-0.2,60c-1.6-9.3-4.2-19.4-7.6-27.2c-4.1-9.4-10.5-23.7-15.6-28.6
				c-1.2-1.2,5.3,26.8,9.5,34.2c4.2,7.4,7.2,14.4,9.9,18.6c0.6,1,2.6,4.8,3.8,6.9c0,25.1,0.1,47.2,0.4,54.7h1.1
				c-0.1-1.9-0.1-14.7-0.1-31.6c2.6-9.2,8.6-19.6,13.5-29.2C416.1,297.7,429.8,269.8,424.6,274z"/>
			<g>
				<polygon class="st4" points="412.4,384.2 381.1,384.2 378.7,353.5 414.8,353.5 				"/>
				<polygon class="st3" points="417.1,357.1 376.4,357.1 375.2,346.7 418.3,346.7 				"/>
			</g>
		</g>
		<g>
			<rect x="68.2" y="75.5" class="st1" width="56.1" height="61.5"/>
			<rect x="72.4" y="75.5" class="st3" width="57.9" height="61.5"/>
			
				<rect x="75.5" y="82.2" transform="matrix(-1.836970e-16 1 -1 -1.836970e-16 207.6537 4.8903)" class="st5" width="51.8" height="48.2"/>
			
				<rect x="88" y="93.9" transform="matrix(-1.836970e-16 1 -1 -1.836970e-16 207.6537 4.8903)" class="st3" width="26.7" height="24.8"/>
		</g>
		<g>
			<g>
				<rect x="358" y="82.7" class="st1" width="52.1" height="57.2"/>
				<rect x="361.9" y="82.7" class="st3" width="53.8" height="57.2"/>
				
					<rect x="364.7" y="88.9" transform="matrix(-1.836970e-16 1 -1 -1.836970e-16 500.0589 -277.5375)" class="st5" width="48.2" height="44.8"/>
			</g>
			<circle class="st3" cx="388.8" cy="111.3" r="14"/>
		</g>
		<g>
			<g>
				<rect x="140.9" y="112.2" class="st1" width="41.6" height="45.7"/>
				<rect x="144" y="112.2" class="st3" width="42.9" height="45.7"/>
				
					<rect x="146.3" y="117.1" transform="matrix(-1.836970e-16 1 -1 -1.836970e-16 300.5446 -30.4925)" class="st5" width="38.5" height="35.8"/>
				<polygon class="st3" points="165.5,125.3 155.7,142.2 175.3,142.2 				"/>
			</g>
		</g>
	</g>
</g>
<g id="Background_simple" class="st6">
	<g class="st7">
		<path class="st3" d="M134.5,237.7c58.5,60.4,135.5,102.2,206.8,34.6c36.8-34.8,85.3-128.9,37.4-172
			c-66.1-59.3-104,37.8-153.4,50.9c-33.9,9-62.3-43-102.9-8.3C90.4,170.5,110.1,212.7,134.5,237.7z"/>
	</g>
</g>
<g id="Shadow">
	<ellipse class="st3" cx="250" cy="416.2" rx="193.9" ry="11.3"/>
</g>
<g id="Character_2">
</g>
<g id="Screen">
	<g>
		<rect x="238.5" y="70.6" class="st8" width="6.4" height="1"/>
		
			<rect x="319.1" y="119.4" transform="matrix(4.499679e-02 -0.999 0.999 4.499679e-02 193.165 441.9351)" class="st8" width="17.2" height="1"/>
		<polygon class="st8" points="325.6,75.2 207.6,75.2 196.6,320.9 314.6,320.9 		"/>
		<polygon class="st9" points="322.1,78.6 204.1,78.6 193.1,324.3 311.1,324.3 		"/>
		<polygon class="st10" points="318.6,81.9 200.6,81.9 189.6,327.7 307.6,327.7 		"/>
		<polygon class="st5" points="305.1,189.1 204.4,189.1 203.6,207.9 304.3,207.9 		"/>
		<polygon class="st8" points="259.8,175.4 205,175.4 204.7,183.8 259.4,183.8 		"/>
		<polygon class="st5" points="302.9,239.8 202.2,239.8 201.3,258.7 302,258.7 		"/>
		<polygon class="st11" points="284.4,284 216.7,284 215.7,306.6 283.4,306.6 		"/>
		<path class="st5" d="M279.9,310.1h-67.7c0,0-0.1,0-0.1,0c0,0,0-0.1,0-0.1l1-22.5c0-0.1,0.1-0.1,0.1-0.1h67.7c0,0,0.1,0,0.1,0
			c0,0,0,0.1,0,0.1l-1,22.5C280,310,279.9,310.1,279.9,310.1z M212.3,309.8h67.5l1-22.3h-67.5L212.3,309.8z"/>
		<polygon class="st8" points="248,226.1 202.8,226.1 202.4,234.5 247.6,234.5 		"/>
		<path class="st5" d="M283.1,128.4c-0.3,5.6-2.3,10.8-5.6,15.1c-4.9,6.4-12.7,10.6-21.2,10.6c-8.5,0-15.9-4.2-20.2-10.6
			c-2.9-4.2-4.5-9.4-4.2-15.1c0.6-14.2,12.6-25.6,26.8-25.6C272.8,102.8,283.7,114.2,283.1,128.4z"/>
		<path class="st8" d="M285.5,108.1c-0.1,1.5-0.6,2.9-1.5,4c-1.3,1.7-3.4,2.8-5.6,2.8s-4.2-1.1-5.4-2.8c-0.8-1.1-1.2-2.5-1.1-4
			c0.2-3.8,3.4-6.8,7.1-6.8C282.8,101.3,285.7,104.4,285.5,108.1z"/>
		<path class="st12" d="M215.3,198.5c-0.1,1.7-1.5,3-3.1,3c-1.7,0-3-1.3-2.9-3c0.1-1.7,1.5-3,3.1-3
			C214.1,195.5,215.3,196.8,215.3,198.5z"/>
		<path class="st12" d="M228.8,198.5c-0.1,1.7-1.5,3-3.1,3c-1.7,0-3-1.3-2.9-3c0.1-1.7,1.5-3,3.1-3S228.8,196.8,228.8,198.5z"/>
		<path class="st12" d="M242.2,198.5c-0.1,1.7-1.5,3-3.1,3c-1.7,0-3-1.3-2.9-3c0.1-1.7,1.5-3,3.1-3
			C241,195.5,242.3,196.8,242.2,198.5z"/>
		<path class="st12" d="M213,249.3c-0.1,1.7-1.5,3-3.1,3c-1.7,0-3-1.3-2.9-3c0.1-1.7,1.5-3,3.1-3C211.8,246.2,213.1,247.6,213,249.3
			z"/>
		<path class="st12" d="M226.5,249.3c-0.1,1.7-1.5,3-3.1,3c-1.7,0-3-1.3-2.9-3c0.1-1.7,1.5-3,3.1-3
			C225.3,246.2,226.6,247.6,226.5,249.3z"/>
		<path class="st12" d="M240,249.3c-0.1,1.7-1.5,3-3.1,3c-1.7,0-3-1.3-2.9-3c0.1-1.7,1.5-3,3.1-3S240,247.6,240,249.3z"/>
		<path class="st12" d="M253.5,249.3c-0.1,1.7-1.5,3-3.1,3c-1.7,0-3-1.3-2.9-3c0.1-1.7,1.5-3,3.1-3
			C252.2,246.2,253.5,247.6,253.5,249.3z"/>
		<path class="st12" d="M266.9,249.3c-0.1,1.7-1.5,3-3.1,3c-1.7,0-3-1.3-2.9-3c0.1-1.7,1.5-3,3.1-3
			C265.7,246.2,267,247.6,266.9,249.3z"/>
		<g>
			
				<ellipse transform="matrix(0.715 -0.6991 0.6991 0.715 -10.2747 214.4266)" class="st8" cx="257.9" cy="119.8" rx="10.6" ry="10.1"/>
			<path class="st8" d="M277.5,143.4c-4.9,6.4-12.7,10.6-21.2,10.6c-8.5,0-15.9-4.2-20.2-10.6c4.9-4.8,12.6-8,21.1-8
				C265.7,135.4,273.1,138.6,277.5,143.4z"/>
			
				<ellipse transform="matrix(0.715 -0.6991 0.6991 0.715 -10.2747 214.4266)" class="st13" cx="257.9" cy="119.8" rx="10.6" ry="10.1"/>
			<path class="st13" d="M277.5,143.4c-4.9,6.4-12.7,10.6-21.2,10.6c-8.5,0-15.9-4.2-20.2-10.6c4.9-4.8,12.6-8,21.1-8
				C265.7,135.4,273.1,138.6,277.5,143.4z"/>
		</g>
	</g>
</g>
<g id="Character_1">
</g>
</svg>
