<?xml version="1.0" encoding="utf-8"?>
<!-- Generator: Adobe Illustrator 25.2.0, SVG Export Plug-In . SVG Version: 6.00 Build 0)  -->
<svg version="1.1" id="Warstwa_1" xmlns="http://www.w3.org/2000/svg" xmlns:xlink="http://www.w3.org/1999/xlink" x="0px" y="0px"
	 viewBox="0 0 377.9 60.9" style="enable-background:new 0 0 377.9 60.9;" xml:space="preserve">
<style type="text/css">
	.st0{fill:#0001FC;}
	.st1{fill:#333333;}
</style>
<g>
	<g>
		<path class="st0" d="M141.5,4.8c14.1,0,25.6,11.5,25.6,25.6s-11.5,25.6-25.6,25.6c-14.1,0-25.6-11.5-25.6-25.6
			S127.4,4.8,141.5,4.8 M141.5,0c-16.8,0-30.4,13.6-30.4,30.4s13.6,30.4,30.4,30.4s30.4-13.6,30.4-30.4S158.3,0,141.5,0L141.5,0z"/>
		<circle class="st0" cx="141.5" cy="30.4" r="6.9"/>
	</g>
	<g>
		<path class="st1" d="M10.8,30.5H21v13.3c-1.7,0.5-3.2,0.9-4.7,1.1s-3,0.3-4.5,0.3C8,45.3,5,44.2,3,41.9s-3.1-5.6-3.1-9.8
			c0-4.1,1.2-7.4,3.6-9.7s5.7-3.5,9.9-3.5c2.6,0,5.2,0.5,7.6,1.6l-1.8,4.4c-1.9-0.9-3.8-1.4-5.9-1.4c-2.4,0-4.2,0.8-5.7,2.4
			s-2.1,3.7-2.1,6.4c0,2.8,0.6,4.9,1.7,6.4s2.8,2.2,5,2.2c1.1,0,2.3-0.1,3.5-0.4V35h-4.9V30.5z"/>
		<path class="st1" d="M48.4,31.8c0,4.2-1.2,7.5-3.6,9.7s-5.9,3.4-10.4,3.4h-7.3V19.2h8.1c4.2,0,7.5,1.1,9.8,3.3
			S48.4,27.9,48.4,31.8z M42.8,32c0-5.5-2.4-8.3-7.3-8.3h-2.9v16.7h2.3C40.2,40.4,42.8,37.6,42.8,32z"/>
		<path class="st1" d="M70.5,44.9H51.4v-3.5l12.3-17.7h-12v-4.5h18.5v3.5L57.9,40.4h12.6V44.9z"/>
		<path class="st1" d="M74.6,44.9V19.2h5.4v25.7H74.6z"/>
		<path class="st1" d="M101.3,44.9H86.5V19.2h14.8v4.5H92v5.6h8.7v4.5H92v6.6h9.4V44.9z"/>
	</g>
	<g>
		<path class="st1" d="M193.8,45.3h-5.4V24.2h-7v-4.5h19.4v4.5h-7V45.3z"/>
		<path class="st1" d="M229.7,45.3h-6.2L220,31.8c-0.1-0.5-0.3-1.5-0.7-3s-0.5-2.5-0.5-3c-0.1,0.6-0.2,1.6-0.5,3s-0.5,2.4-0.7,3
			l-3.5,13.5H208l-6.6-25.7h5.4l3.3,14c0.6,2.6,1,4.8,1.2,6.7c0.1-0.7,0.2-1.7,0.5-3.1s0.5-2.5,0.7-3.3l3.7-14.4h5.2l3.7,14.4
			c0.2,0.6,0.4,1.6,0.6,3s0.4,2.5,0.6,3.4c0.1-0.9,0.3-2.1,0.6-3.4s0.5-2.5,0.7-3.3l3.3-14h5.4L229.7,45.3z"/>
		<path class="st1" d="M255.2,45.3l-1.9-6.1H244l-1.9,6.1h-5.9l9.1-25.8h6.7l9.1,25.8H255.2z M252.1,34.6c-1.7-5.5-2.7-8.7-2.9-9.4
			s-0.4-1.3-0.5-1.7c-0.4,1.5-1.5,5.2-3.3,11.1H252.1z"/>
		<path class="st1" d="M269.8,35.5v9.9h-5.4V19.6h7.5c3.5,0,6.1,0.6,7.8,1.9s2.5,3.2,2.5,5.8c0,1.5-0.4,2.9-1.2,4
			c-0.8,1.2-2,2.1-3.5,2.8c3.9,5.8,6.4,9.5,7.6,11.2h-6l-6.1-9.9H269.8z M269.8,31h1.8c1.7,0,3-0.3,3.8-0.9s1.2-1.5,1.2-2.7
			c0-1.2-0.4-2.1-1.3-2.6s-2.1-0.8-3.9-0.8h-1.7V31z"/>
		<path class="st1" d="M298,45.3h-5.4V24.2h-7v-4.5H305v4.5h-7V45.3z"/>
		<path class="st1" d="M323.7,45.3h-14.8V19.6h14.8v4.5h-9.4v5.6h8.7v4.5h-8.7v6.6h9.4V45.3z"/>
		<path class="st1" d="M327.9,42.8c0-1,0.3-1.7,0.8-2.2s1.3-0.8,2.3-0.8c1,0,1.7,0.3,2.3,0.8s0.8,1.3,0.8,2.2c0,0.9-0.3,1.7-0.8,2.2
			s-1.3,0.8-2.3,0.8c-1,0-1.7-0.3-2.3-0.8S327.9,43.8,327.9,42.8z"/>
		<path class="st1" d="M357.1,27.6c0,2.8-0.9,4.9-2.6,6.3s-4.2,2.2-7.4,2.2h-2.3v9.1h-5.4V19.6h8.2c3.1,0,5.5,0.7,7.1,2
			S357.1,25,357.1,27.6z M344.8,31.7h1.8c1.7,0,2.9-0.3,3.8-1s1.2-1.6,1.2-2.9c0-1.3-0.3-2.2-1-2.8s-1.8-0.9-3.3-0.9h-2.5V31.7z"/>
		<path class="st1" d="M362,45.3V19.6h5.4v21.2h10.4v4.5H362z"/>
	</g>
</g>
</svg>
