<svg xmlns="http://www.w3.org/2000/svg" xmlns:xlink="http://www.w3.org/1999/xlink" width="633.196" height="890.279" viewBox="0 0 633.196 890.279">
  <defs>
    <clipPath id="clip-path">
      <rect id="Rectangle_3" data-name="Rectangle 3" width="112.067" height="84.634" transform="translate(0 41.352) rotate(-21.654)" fill="none"/>
    </clipPath>
  </defs>
  <g id="Group_57" data-name="Group 57" transform="translate(262.38 -13.48)">
    <ellipse id="Ellipse_2" data-name="Ellipse 2" cx="248.731" cy="60.893" rx="248.731" ry="60.893" transform="translate(-195.771 765.77)" opacity="0.08"/>
    <g id="Group_49" data-name="Group 49" transform="translate(-262.38 247.459)">
      <g id="Group_41" data-name="Group 41" transform="translate(213.302)">
        <g id="Group_32" data-name="Group 32">
          <path id="Path_1" data-name="Path 1" d="M-138.272,101.181c30.418-31.442,78.745-26.069,99.584-6.48,17.913,16.839,17.4,67.7,20.979,90.386,3.582,21.491,18.261,31.356,20.582,53,2.987,27.81-17.179,55.52-86.4,41.439-31.589-6.43-64.32,8.955-94.767-2.393-16.717-6.562-23.53-16.394-24.479-35.217-1.436-28.623,25.278-41.034,22.469-60.86C-187.283,131.821-180.277,85.922-138.272,101.181Z" transform="translate(202.831 -78.802)" fill="#27365f"/>
          <path id="Path_2" data-name="Path 2" d="M-185.718,263.914c3.661-14.65,12.551-27.2,14.646-41.844,2.611-17.265-2.618-35.049-2.1-52.833,0-17.258,3.661-36.614,17.784-48.642,9.417-7.848,21.445-9.94,33.477-11.509,10.524-16.437,25.389-25.227,42.381-30.138-19.976-1.182-42.055,4.968-58.747,22.222-42.005-15.259-49.011,30.64-42.034,79.877,2.808,19.826-23.906,32.237-22.469,60.86.763,15.116,5.319,24.429,15.735,30.9A39.687,39.687,0,0,1-185.718,263.914Z" transform="translate(202.831 -78.791)" fill="#354b7c"/>
          <path id="Path_3" data-name="Path 3" d="M-147.516,100.083c22.792-23.562,35.644,14.707,51.261,29.382,13.425,12.616,36.4,16.491,39.079,33.491,2.683,16.1,13.683,23.494,15.424,39.709,2.235,20.84-12.873,41.6-64.743,31.048-23.673-4.814-48.2,6.709-71.011-1.791-12.522-4.918-17.63-12.279-18.339-26.388-1.078-21.445,18.941-30.74,16.835-45.6C-184.241,123.043-155.038,114.819-147.516,100.083Z" transform="translate(220.754 -43.188)" fill="#1f2c49"/>
          <g id="Group_31" data-name="Group 31" transform="translate(12.117 11.632)">
            <path id="Path_4" data-name="Path 4" d="M-62.939,211.773c-4.1-11.695-10.269-22.477-13.472-34.522-3.621-13.629-3.532-27.942-5.9-41.794-3.353-19.582-14.206-37.492-31.736-47.281-21.477-11.989-46.6-3.929-68.1,3.4-1.63.559-.931,3.156.713,2.586,22.469-7.651,46.1-14.793,68.318-2.386,19.31,10.782,27.029,33.036,29.576,53.675,1.214,9.822,1.787,19.643,3.775,29.361,1.9,9.3,5.81,17.974,9.639,26.592,4.828,10.878,9.865,22.183,7.307,34.293-1.988,9.4-9.6,16.8-16.355,23.078-1.272,1.182.634,3.08,1.9,1.906C-61.922,246.389-55.775,232.223-62.939,211.773Z" transform="translate(241.712 -82.05)" fill="#1f2c49"/>
            <path id="Path_5" data-name="Path 5" d="M-180.625,88.418c-1.705.19-1.723,2.876,0,2.686,22.853-2.5,49.789-6.4,68.787,9.668,22.4,18.93,17.222,55.806,13.608,81.216-.24,1.694,2.346,2.421,2.59.713,3.811-26.771,7.5-57.723-10.807-80.292C-123.73,81.129-156.881,85.821-180.625,88.418Z" transform="translate(244.727 -71.621)" fill="#1f2c49"/>
            <path id="Path_6" data-name="Path 6" d="M-150.351,87.511c-29.977,6.906-29.948,41.794-29.78,66.552.075,10.871-.251,21.534-3.234,32.069-2.823,9.958-9.739,18.21-13.636,27.735-5.527,13.507-1.916,30.5,13.174,34.719a1.344,1.344,0,0,0,.716-2.59c-23.931-6.695-10.33-34.007-2.608-47.808,7.647-13.672,8.378-28.817,8.274-44.126C-177.6,130.6-178.268,96.7-149.638,90.1-147.948,89.714-148.664,87.128-150.351,87.511Z" transform="translate(199.448 -68.049)" fill="#1f2c49"/>
            <g id="Group_28" data-name="Group 28" transform="translate(11.537 12.585)">
              <path id="Path_7" data-name="Path 7" d="M-165.537,85.606c-25.535,6.057-33.613,29.887-29.791,54.022.272,1.709,2.862.978,2.593-.713-3.6-22.7,3.865-45.014,27.91-50.72,1.687-.4.971-2.994-.713-2.59Z" transform="translate(196.227 -85.563)" fill="#1f2c49"/>
            </g>
            <g id="Group_29" data-name="Group 29" transform="translate(86.978 22.613)">
              <path id="Path_8" data-name="Path 8" d="M-174.753,90.649c13.418,12.795,27.52,23.938,46.035,28.129,1.687.387,2.4-2.2.713-2.586-18.078-4.094-31.761-14.965-44.849-27.448-1.254-1.2-3.156.7-1.9,1.906Z" transform="translate(175.165 -88.363)" fill="#1f2c49"/>
            </g>
            <g id="Group_30" data-name="Group 30" transform="translate(34.809 27.709)">
              <path id="Path_9" data-name="Path 9" d="M-171.534,90.418c-4.227,6.709-10.778,11.541-17.544,15.474a1.344,1.344,0,0,0,1.354,2.321c7.167-4.169,14.037-9.345,18.508-16.437.928-1.479-1.4-2.823-2.317-1.358Z" transform="translate(189.73 -89.785)" fill="#1f2c49"/>
            </g>
          </g>
        </g>
        <g id="Group_33" data-name="Group 33" transform="translate(17.156 113.03)">
          <path id="Path_10" data-name="Path 10" d="M-198.041,125.742a15.378,15.378,0,0,0,15.381,15.377,15.377,15.377,0,0,0,15.377-15.377,15.383,15.383,0,0,0-15.377-15.384A15.384,15.384,0,0,0-198.041,125.742Z" transform="translate(198.041 -110.358)" fill="#ffdad7"/>
          <path id="Path_11" data-name="Path 11" d="M-196.542,121.869a10.012,10.012,0,0,0,10.011,10.011,10.011,10.011,0,0,0,10.008-10.011,10.007,10.007,0,0,0-10.008-10.011A10.007,10.007,0,0,0-196.542,121.869Z" transform="translate(201.911 -106.485)" fill="#ed9d9d" opacity="0.4"/>
        </g>
        <g id="Group_34" data-name="Group 34" transform="translate(151.854 113.03)">
          <path id="Path_12" data-name="Path 12" d="M-129.678,125.742a15.377,15.377,0,0,1-15.377,15.377,15.378,15.378,0,0,1-15.381-15.377,15.384,15.384,0,0,1,15.381-15.384A15.383,15.383,0,0,1-129.678,125.742Z" transform="translate(160.436 -110.358)" fill="#ffdad7"/>
          <path id="Path_13" data-name="Path 13" d="M-138.918,121.869a10.011,10.011,0,0,1-10.008,10.011,10.012,10.012,0,0,1-10.011-10.011,10.007,10.007,0,0,1,10.011-10.011A10.007,10.007,0,0,1-138.918,121.869Z" transform="translate(164.306 -106.485)" fill="#ed9d9d" opacity="0.4"/>
        </g>
        <path id="Path_14" data-name="Path 14" d="M-93.7,172.939V144.151A23.749,23.749,0,0,0-117.452,120.4,23.752,23.752,0,0,0-141.2,144.151v28.781a78.974,78.974,0,0,0-55.179,75.292,78.928,78.928,0,0,0,78.927,78.927,78.929,78.929,0,0,0,78.931-78.927A78.957,78.957,0,0,0-93.7,172.939Z" transform="translate(219.488 28.597)" fill="#ffdad7"/>
        <path id="Path_15" data-name="Path 15" d="M-133.478,151.232v-7.081A23.749,23.749,0,0,0-157.226,120.4a23.752,23.752,0,0,0-23.748,23.752v10.52a56.973,56.973,0,0,0,19.948,3.611A57.624,57.624,0,0,0-133.478,151.232Z" transform="translate(259.263 28.597)" fill="#ed9d9d" opacity="0.4"/>
        <path id="Path_16" data-name="Path 16" d="M-79.607,127.892c-9.012-3.385-18.4-6.01-27.04-10.52a137.267,137.267,0,0,1-21.6-14.084c-5.391-4.28-11.036-8.718-14.929-14.518-.236.065-.469.147-.709.211-6.695,10.416-17.319,19.084-26.61,26.513A174.3,174.3,0,0,1-185.6,126.226a81.013,81.013,0,0,0-7.282,33.756c0,40.408,28.77,73.171,64.259,73.171s64.26-32.764,64.26-73.171a81.614,81.614,0,0,0-5.359-29.207A86.438,86.438,0,0,1-79.607,127.892Z" transform="translate(228.509 -53.066)" fill="#ffdad7"/>
        <path id="Path_17" data-name="Path 17" d="M-179.933,148.061c0-21.764,8.375-41.267,21.62-54.674-4.037,3.646-8.228,7.031-12.178,10.187A174.3,174.3,0,0,1-185.6,114.305a81.013,81.013,0,0,0-7.282,33.756c0,40.408,28.77,73.171,64.259,73.171a57.954,57.954,0,0,0,6.48-.372C-154.594,217.16-179.933,185.979-179.933,148.061Z" transform="translate(228.509 -41.146)" fill="#ed9d9d" opacity="0.4"/>
        <g id="Group_40" data-name="Group 40" transform="translate(37.143 79.252)">
          <g id="Group_35" data-name="Group 35" transform="translate(67.4 27.036)">
            <path id="Path_18" data-name="Path 18" d="M-173.167,109.494c-.3,7.192-.663,14.442-.365,21.646a1.051,1.051,0,0,0,1.325.96,18.754,18.754,0,0,1,7.665.322c4.685,1.139,3.077,6.093-.527,7.339a12.857,12.857,0,0,1-4.52.494c-1.329-.032-1.272,2.024.05,2.06,4.248.111,12.189-1.812,10.395-7.758-1.583-5.24-9.424-5.136-13.658-4.431.441.322.885.638,1.325.96-.3-7.2.061-14.446.365-21.645.057-1.322-2-1.268-2.056.054Z" transform="translate(173.644 -108.476)" fill="#ba4232"/>
          </g>
          <g id="Group_36" data-name="Group 36" transform="translate(41.882 66.517)">
            <path id="Path_19" data-name="Path 19" d="M-180.505,121.565c5.434,7.626,11.792,12.963,21.388,13.7,8.987.684,18.708-3.471,23.168-11.383a1.426,1.426,0,0,0-2.461-1.44c-4.248,7.536-12.53,9.908-20.707,9.968-8.317.064-14.449-6.01-18.927-12.29-1.057-1.483-3.532-.064-2.461,1.44Z" transform="translate(180.769 -119.498)" fill="#ce4136"/>
          </g>
          <g id="Group_37" data-name="Group 37" transform="translate(0 42.719)">
            <path id="Path_20" data-name="Path 20" d="M-145.728,112.854a18.383,18.383,0,0,0-18.386,18.386,18.354,18.354,0,0,0,8.844,15.692,76.861,76.861,0,0,0,15.094-33.226A18.443,18.443,0,0,0-145.728,112.854Z" transform="translate(265.65 -112.854)" fill="#ffada9" opacity="0.6" style="mix-blend-mode: multiply;isolation: isolate"/>
            <path id="Path_21" data-name="Path 21" d="M-169.959,131.3a18.383,18.383,0,0,0-18.386-18.386,18.538,18.538,0,0,0-4.116.476,77.04,77.04,0,0,0,14.75,32.886A18.341,18.341,0,0,0-169.959,131.3Z" transform="translate(192.461 -112.696)" fill="#ffada9" opacity="0.6" style="mix-blend-mode: multiply;isolation: isolate"/>
          </g>
          <g id="Group_38" data-name="Group 38" transform="translate(22.658 27.059)">
            <path id="Path_22" data-name="Path 22" d="M-162.307,111.34c-1.537,3.428-4.252,8.786-8.94,7.253-4.2-1.361-6.6-4.818-7.339-9.051-.315-1.812-3.084-1.114-2.765.691.061.365.183.741.283,1.114-1.257.19-2.511.351-3.775.455-1.716.14-1.727,2.826,0,2.686,1.555-.125,3.095-.337,4.635-.566l.036-.014c.254.559.552,1.1.87,1.651-.827.236-1.648.5-2.493.684-1.694.372-.974,2.959.713,2.59,1.161-.254,2.267-.688,3.428-.946h0c2.056,2.357,4.8,4,7.977,3.779,5.484-.394,8.045-4.918,10.1-9.5C-158.818,110.495-161.562,109.689-162.307,111.34Z" transform="translate(186.135 -108.482)" fill="#491915"/>
            <path id="Path_23" data-name="Path 23" d="M-142.828,111.685c-1.186-.107-2.361-.265-3.539-.441.079-.272.183-.555.247-.827.4-1.784-2.325-2.622-2.729-.824-.928,4.091-4.481,9.41-9.428,8.815-3.94-.476-5.649-4.571-6.927-7.83-.655-1.687-3.435-1.021-2.765.695,1.927,4.925,4.606,10.079,10.6,9.968a10.546,10.546,0,0,0,7.529-3.729c1.092.265,2.135.663,3.231.91,1.687.376,2.4-2.214.713-2.59-.756-.176-1.494-.4-2.232-.63.283-.462.548-.924.781-1.4,1.5.229,3.005.441,4.517.573C-141.1,114.519-141.116,111.832-142.828,111.685Z" transform="translate(232.771 -108.197)" fill="#491915"/>
          </g>
          <g id="Group_39" data-name="Group 39" transform="translate(32.652)">
            <path id="Path_24" data-name="Path 24" d="M-156.043,104.17a12.17,12.17,0,0,0-8.038-3.242c-2.31-.068-2.3,3.514,0,3.582a8.348,8.348,0,0,1,5.505,2.192C-156.888,108.268-154.349,105.743-156.043,104.17Z" transform="translate(228.617 -100.928)" fill="#253449"/>
            <path id="Path_25" data-name="Path 25" d="M-174.748,100.929a12.17,12.17,0,0,0-8.038,3.242c-1.694,1.572.845,4.1,2.532,2.532a8.355,8.355,0,0,1,5.505-2.192C-172.441,104.443-172.438,100.861-174.748,100.929Z" transform="translate(183.345 -100.928)" fill="#253449"/>
          </g>
        </g>
      </g>
      <g id="Group_43" data-name="Group 43" transform="translate(0 228.92)">
        <path id="Path_26" data-name="Path 26" d="M-70.69,210.313s-13.887,52.858-29.121,46.59-75.9-85.7-75.9-85.7-5.638-26.087-23.558-28.208-33.154,8.177-26.882,13.1,16.917-5.967,22.906.1c5.015,5.079,8.013,15.721-5.269,17.813-13.346,2.106-20.51-2.833-21.441-12.368-.573-5.907.433-10.076-2.7-11.949-2.249-1.35-6.39-.183-7.662,5.9-2.733,13.092,7.443,26.936,7.443,26.936s-10.753-2.192-17.523-16.616c-2.776-5.91-10.305-7.1-7.615,4.065,1.87,7.773,6.956,14.761,18.966,24.919,0,0-3.41,1.827-13.643-4.485-2.848-1.762-8.779-4.889-9.639-1.293-.458,1.909,1.727,6.469,8.844,10.932,14.02,8.794,48.528,16.595,74.515-3.568,0,0,26.592,131.811,73.135,136.8,53.238,5.7,93.38-102.371,93.38-102.371Z" transform="translate(262.38 -142.712)" fill="#ffdad7"/>
        <g id="Group_42" data-name="Group 42" transform="translate(20.674 38.535)">
          <path id="Path_27" data-name="Path 27" d="M-242.949,156.656c-3.929,1.476-8.55,2.722-12.762,2.042-.9-.147-1.286,1.225-.38,1.379,4.484.72,9.331-.469,13.522-2.049C-241.717,157.713-242.086,156.327-242.949,156.656Z" transform="translate(256.609 -145.375)" fill="#ed9d9d" opacity="0.4"/>
          <path id="Path_28" data-name="Path 28" d="M-240.765,155.091a36.959,36.959,0,0,1-13.246-1.59.716.716,0,0,0-.38,1.379,37.758,37.758,0,0,0,13.626,1.63C-239.855,156.442-239.848,155.012-240.765,155.091Z" transform="translate(261.04 -153.47)" fill="#ed9d9d" opacity="0.4"/>
        </g>
        <path id="Path_29" data-name="Path 29" d="M-184.829,182.564c12.974,21.176,21.38,44.265,5.91,66.251-10.688,14.965-25.464,25.844-41.937,33.638a27.472,27.472,0,0,0,7.816,2.113c53.238,5.7,93.38-102.371,93.38-102.371l-58.242-20.61A211.3,211.3,0,0,1-184.829,182.564Z" transform="translate(369.592 -93.985)" fill="#ed9d9d" opacity="0.4"/>
      </g>
      <g id="Group_45" data-name="Group 45" transform="translate(380.748 228.92)">
        <path id="Path_30" data-name="Path 30" d="M-97.845,210.313s13.887,52.858,29.125,46.59,75.894-85.7,75.894-85.7S12.815,145.118,30.735,143s33.151,8.177,26.879,13.1-16.914-5.967-22.906.1c-5.011,5.079-8.009,15.721,5.276,17.813,13.339,2.106,20.5-2.833,21.434-12.368.573-5.907-.43-10.076,2.7-11.949,2.249-1.35,6.394-.183,7.665,5.9,2.733,13.092-7.447,26.936-7.447,26.936s10.753-2.192,17.526-16.616c2.772-5.91,10.3-7.1,7.615,4.065-1.87,7.773-6.956,14.761-18.966,24.919,0,0,3.406,1.827,13.643-4.485,2.848-1.762,8.776-4.889,9.639-1.293.458,1.909-1.723,6.469-8.847,10.932-14.02,8.794-48.528,16.595-74.515-3.568,0,0-26.589,131.811-73.132,136.8-53.238,5.7-93.38-102.371-93.38-102.371Z" transform="translate(156.083 -142.712)" fill="#ffdad7"/>
        <g id="Group_44" data-name="Group 44" transform="translate(208.295 38.535)">
          <path id="Path_31" data-name="Path 31" d="M-95.272,156.656c3.929,1.476,8.55,2.722,12.762,2.042.9-.147,1.286,1.225.383,1.379-4.488.72-9.338-.469-13.525-2.049C-96.5,157.713-96.131,156.327-95.272,156.656Z" transform="translate(102.572 -145.375)" fill="#ed9d9d" opacity="0.4"/>
          <path id="Path_32" data-name="Path 32" d="M-97.243,155.091A36.939,36.939,0,0,0-84,153.5a.716.716,0,0,1,.38,1.379,37.739,37.739,0,0,1-13.622,1.63C-98.157,156.442-98.164,155.012-97.243,155.091Z" transform="translate(97.931 -153.47)" fill="#ed9d9d" opacity="0.4"/>
        </g>
        <path id="Path_33" data-name="Path 33" d="M-63.186,228.52c-35.773-5.115-44.4-32.1-31.918-57.737-1.741-5.409-2.74-9.2-2.74-9.2l-58.238,20.61s40.142,108.07,93.38,102.371c19.9-2.135,36.145-27.473,48.23-55.774C-30.365,228.513-45.907,230.676-63.186,228.52Z" transform="translate(156.083 -93.985)" fill="#ed9d9d" opacity="0.4"/>
      </g>
      <path id="Path_34" data-name="Path 34" d="M13.755,260.964c0,33.4-37.538,60.481-83.845,60.481h-50.928c-46.307,0-83.842-27.076-83.842-60.481h0c0-33.4,37.535-60.481,83.842-60.481h50.928c46.307,0,83.845,27.076,83.845,60.481Z" transform="translate(410.893 235.367)" fill="#f2556c"/>
      <g id="Group_46" data-name="Group 46" transform="translate(183.624 204.816)">
        <path id="Path_35" data-name="Path 35" d="M52.312,233.515c-25.535-86.023-90.447-97.532-90.447-97.532-4.284,13.586-15.094,34.254-41.267,34.254s-36.98-20.668-41.264-34.254c0,0-64.915,11.509-90.45,97.532,0,0,16.685,15.76,44.706,20.911-4.639,59.406-7.046,131.073-7.046,131.073s49.721,6.229,94.054,6.229S14.652,385.5,14.652,385.5,12.245,313.832,7.61,254.426C35.628,249.275,52.312,233.515,52.312,233.515Z" transform="translate(211.116 -135.983)" fill="#0045da"/>
        <path id="Path_36" data-name="Path 36" d="M-106.548,322.571c4.7,0,9.453-.072,14.206-.2-67.265-69.457-99.086-159.606-99.086-159.606l-2.128,22.5c-4.639,59.406-7.046,131.073-7.046,131.073S-150.881,322.571-106.548,322.571Z" transform="translate(238.262 -66.827)" fill="#003dbf"/>
        <path id="Path_37" data-name="Path 37" d="M-148.456,203.3a97.325,97.325,0,0,0,42.922-19.382c-31.317-7.357-45.136-28.136-45.136-28.136Z" transform="translate(367.182 -84.859)" fill="#003dbf"/>
      </g>
      <g id="Group_47" data-name="Group 47" transform="translate(45.741 388.404)">
        <path id="Path_38" data-name="Path 38" d="M112.353,354.354c20.517,14.174,74.887,46.207,77.025,51.515,5.767,14.335-32.7,49.28-36.317,47.937s-37.277-64.507-40.164-67.2S-70.837,358.831-153.085,320.8c-46.049-21.3-107.26-76.656-94.272-108.915S-168,180.972-124.225,208.3,89.436,338.522,112.353,354.354Z" transform="translate(250.857 -185.947)" fill="#ffdad7"/>
        <path id="Path_39" data-name="Path 39" d="M-122.033,208.069c-20.893-13.045-48.08-20.832-72.72-20.832-27.233,0-46.558,9.213-53.019,25.27C-261,245.361-200.1,301.733-152.59,323.708c17.089,7.905,39.9,15.893,67.784,23.745l1.322.369.7-1.175c17.7-29.662,37.732-55,59.546-75.292l1.726-1.608L-38.266,259.5C-74.744,237.187-106.251,217.92-122.033,208.069Z" transform="translate(249.61 -187.237)" fill="#ff6f76"/>
        <path id="Path_40" data-name="Path 40" d="M-25.16,281.394c-11.05-7.633-56.279-35.511-105.057-65.4-21.885,20.539-43.764,41.568-65.649,62.705,42.138,10.577,86.134,19.084,118.995,25.088q35.611-4.691,71.1-9.746C-13.386,289.206-20.246,284.786-25.16,281.394Z" transform="translate(388.37 -112.986)" fill="#ed9d9d" opacity="0.4"/>
      </g>
      <g id="Group_48" data-name="Group 48" transform="translate(144.115 388.404)">
        <path id="Path_41" data-name="Path 41" d="M-144.536,354.354c-20.514,14.174-74.887,46.207-77.022,51.515-5.77,14.335,32.7,49.28,36.313,47.937s37.277-64.507,40.164-67.2S38.654,358.831,120.909,320.8c46.045-21.3,107.257-76.656,94.265-108.915S135.81,180.972,92.046,208.3-121.619,338.522-144.536,354.354Z" transform="translate(222.146 -185.947)" fill="#ffdad7"/>
        <path id="Path_42" data-name="Path 42" d="M128.01,219.918q15.914-3.976,32.115-7c-.118-.34-.2-.7-.337-1.042C146.808,179.621,80.424,180.972,36.66,208.3S-177,338.522-199.921,354.354c-.247.168-.519.355-.774.53,40.891-19.217,82.255-37.273,124.113-54.828C-9.643,271.773,58.241,238.773,128.01,219.918Z" transform="translate(277.532 -185.947)" fill="#ed9d9d" opacity="0.4"/>
        <path id="Path_43" data-name="Path 43" d="M56.509,212.507c-6.462-16.058-25.786-25.27-53.019-25.27-24.644,0-51.827,7.787-72.716,20.832-15.47,9.657-46.135,28.412-81.642,50.129l-9.18,5.616,1.68,2.289c1.4,1.924,2.783,3.8,4.144,5.566,3.886,5.262,7.995,10.509,11.967,15.574,6.759,8.625,13.744,17.537,19.564,26.46,5.864,9.338,12.691,20.385,18.827,31.564l.688,1.254,1.375-.394c25.775-7.422,47.02-14.962,63.138-22.419C8.844,301.733,69.74,245.361,56.509,212.507Z" transform="translate(382.474 -187.237)" fill="#ff6f76"/>
        <path id="Path_44" data-name="Path 44" d="M56.96,213.883c-.154-.458-.272-.928-.451-1.375-6.462-16.058-25.786-25.27-53.019-25.27-24.644,0-51.827,7.787-72.716,20.832-15.47,9.657-46.135,28.412-81.642,50.129l-9.18,5.616,1.68,2.289c1.4,1.924,2.783,3.8,4.144,5.566,3.353,4.542,6.863,9.048,10.316,13.461,54.75-23.9,110.241-48.585,166.978-63.923Q39.853,217.012,56.96,213.883Z" transform="translate(382.474 -187.237)" fill="#ff8095"/>
      </g>
    </g>
    <g id="Group_51" data-name="Group 51" transform="translate(-201.508 190.089)">
      <path id="Path_45" data-name="Path 45" d="M-206.833,65.16A16.837,16.837,0,0,1-196.8,86.727l-12.422,34.028a16.81,16.81,0,0,1-21.567,10.029,1.292,1.292,0,0,1-.77-1.658l1-2.74a1.289,1.289,0,0,1,.885-.806,7.763,7.763,0,0,0,5.312-10.155,1.3,1.3,0,0,1,.573-1.565,7.759,7.759,0,0,0,3.421-9.37,1.3,1.3,0,0,1,.573-1.565,7.763,7.763,0,0,0,3.421-9.374,1.3,1.3,0,0,1,.57-1.565,7.756,7.756,0,0,0,3.424-9.37,1.3,1.3,0,0,1,.57-1.565,7.764,7.764,0,0,0,2.479-11.19,1.294,1.294,0,0,1-.158-1.186l1-2.74A1.292,1.292,0,0,1-206.833,65.16Z" transform="translate(280.871 -56.856)" fill="#ebb19c"/>
      <path id="Path_46" data-name="Path 46" d="M-222.742,65.16a16.837,16.837,0,0,1,10.029,21.567l-2.661,7.293a16.84,16.84,0,0,0-8.564-20.951,7.7,7.7,0,0,0-1.307-3.209,1.294,1.294,0,0,1-.158-1.186l1-2.74A1.292,1.292,0,0,1-222.742,65.16Z" transform="translate(296.779 -56.856)" fill="#e58d72"/>
      <path id="Path_47" data-name="Path 47" d="M-228.915,67.555a1.3,1.3,0,0,1,1.762,1.619l-5.323,14.582a1.293,1.293,0,0,1-1.658.77l-9.725-3.55a1.293,1.293,0,0,1-.77-1.658l5.323-14.582a1.3,1.3,0,0,1,2.389-.1l2.54,5.466Z" transform="translate(247.139 -59.942)" fill="#e48c9b"/>
      <path id="Path_48" data-name="Path 48" d="M-236.951,70.1l-2.54-5.466a1.3,1.3,0,0,0-2.389.1l-1.83,5.011a1.3,1.3,0,0,1,2.389-.1l2.54,5.462,5.466-2.54a1.293,1.293,0,0,1,1.759,1.615l1.83-5.011a1.3,1.3,0,0,0-1.762-1.619Z" transform="translate(249.713 -59.942)" fill="#cc5b6f"/>
      <path id="Path_49" data-name="Path 49" d="M-224.647,76.1a1.294,1.294,0,0,1-1.658.774l-18.228-6.655a1.3,1.3,0,0,1-.774-1.662,1.3,1.3,0,0,1,1.662-.77l18.228,6.655A1.292,1.292,0,0,1-224.647,76.1Z" transform="translate(245.386 -50.071)" fill="#aa7569"/>
      <path id="Path_50" data-name="Path 50" d="M-208.6,65.341a10.362,10.362,0,0,1,1.3,17.605,10.347,10.347,0,0,1-3.994,10.936,10.351,10.351,0,0,1-3.994,10.939,10.345,10.345,0,0,1-3.99,10.936,10.366,10.366,0,0,1-12.343,12.626l.974-2.665a1.289,1.289,0,0,1,.885-.806,7.763,7.763,0,0,0,5.312-10.155,1.3,1.3,0,0,1,.573-1.565,7.759,7.759,0,0,0,3.421-9.37,1.3,1.3,0,0,1,.573-1.565,7.763,7.763,0,0,0,3.421-9.374,1.3,1.3,0,0,1,.57-1.565,7.756,7.756,0,0,0,3.424-9.37,1.3,1.3,0,0,1,.57-1.565,7.764,7.764,0,0,0,2.479-11.19,1.294,1.294,0,0,1-.158-1.186Z" transform="translate(280.946 -56.188)" fill="#e58d72"/>
      <path id="Path_51" data-name="Path 51" d="M-209.972,64.632l3.646,1.332a10.361,10.361,0,0,1,2.489,18.124,10.348,10.348,0,0,1-3.99,10.939,10.353,10.353,0,0,1-3.994,10.936,10.351,10.351,0,0,1-3.994,10.939A10.36,10.36,0,0,1-229.4,129.157l-3.646-1.329a1.293,1.293,0,0,1-.77-1.658l22.183-60.764A1.294,1.294,0,0,1-209.972,64.632Z" transform="translate(275.059 -58.22)" fill="#79cb9c"/>
      <path id="Path_52" data-name="Path 52" d="M-224.1,64.632l3.646,1.332a10.38,10.38,0,0,1,4.123,16.681,10.31,10.31,0,0,0-6.784-9.388l-3.646-1.332a1.292,1.292,0,0,0-1.659.774l2.661-7.293A1.294,1.294,0,0,1-224.1,64.632Z" transform="translate(289.188 -58.22)" fill="#63ac7d"/>
      <path id="Path_53" data-name="Path 53" d="M-223.455,69.032l3.858,8.3a1.292,1.292,0,0,1-.627,1.719l-7.121,3.313-.544-1.175a1.3,1.3,0,0,0-2.389.1l4.434-12.153A1.3,1.3,0,0,1-223.455,69.032Z" transform="translate(284.39 -48.581)" fill="#f1cc76"/>
      <path id="Path_54" data-name="Path 54" d="M-224.632,72.426l3.858,8.3a1.3,1.3,0,0,1-.63,1.719L-229.7,86.3a1.3,1.3,0,0,1-1.762-1.619l4.438-12.15A1.3,1.3,0,0,1-224.632,72.426Z" transform="translate(281.133 -39.822)" fill="#f1cc76"/>
      <path id="Path_55" data-name="Path 55" d="M-219.823,75.267l-7.8,21.37a6.448,6.448,0,0,1-4.209,3.972l-1.211-.441a1.293,1.293,0,0,1-.77-1.658l8.428-23.093a1.3,1.3,0,0,0,1.762,1.619Z" transform="translate(275.059 -30.56)" fill="#63ac7d"/>
      <path id="Path_56" data-name="Path 56" d="M-220.2,69.032l1.769,3.8-3.03,8.3-2.629,1.225,1.221,2.629-3.03,8.3-3.8,1.769a1.3,1.3,0,0,1-1.762-1.619l8.872-24.3A1.3,1.3,0,0,1-220.2,69.032Z" transform="translate(281.133 -48.581)" fill="#ebb15d"/>
      <path id="Path_57" data-name="Path 57" d="M-226.831,71.874l-1.408,3.854L-229.46,73.1Z" transform="translate(286.505 -39.321)" fill="#63ac7d"/>
      <path id="Path_58" data-name="Path 58" d="M-222.5,64.632l2.432.888a6.428,6.428,0,0,1-.118,4.091l-4.7,12.863-1.769-3.8a1.3,1.3,0,0,0-2.389.1l4.882-13.368A1.294,1.294,0,0,1-222.5,64.632Z" transform="translate(287.587 -58.22)" fill="#63ac7d"/>
      <path id="Path_59" data-name="Path 59" d="M-235.93,121.355l19.521-53.471a6.469,6.469,0,0,1,8.3-3.858,6.467,6.467,0,0,1,3.858,8.292l-19.521,53.474a6.472,6.472,0,0,1-8.3,3.858A6.471,6.471,0,0,1-235.93,121.355Z" transform="translate(268.783 -60.601)" fill="#aa7569"/>
      <path id="Path_60" data-name="Path 60" d="M-211.448,63.659a6.6,6.6,0,0,1,.9,1.426,6.448,6.448,0,0,1,.211,4.947L-229.855,123.5a6.461,6.461,0,0,1-4.957,4.155,6.484,6.484,0,0,1-.906-1.426,6.449,6.449,0,0,1-.211-4.947l19.521-53.471A6.461,6.461,0,0,1-211.448,63.659Z" transform="translate(268.783 -60.531)" fill="#9a6758"/>
      <path id="Path_61" data-name="Path 61" d="M-220.55,64.026a6.455,6.455,0,0,1,3.646,3.349,6.44,6.44,0,0,1,.211,4.943l-2.661,7.293a6.448,6.448,0,0,0-.215-4.947,6.437,6.437,0,0,0-3.643-3.349,6.472,6.472,0,0,0-8.3,3.858l2.661-7.289A6.469,6.469,0,0,1-220.55,64.026Z" transform="translate(281.22 -60.601)" fill="#9a6758"/>
      <path id="Path_62" data-name="Path 62" d="M-199.659,64.434a1.293,1.293,0,0,1,.77,1.658l-23.071,63.2a1.292,1.292,0,0,1-1.658.77,27.156,27.156,0,0,1-16.2-34.838l5.326-14.582A27.2,27.2,0,0,1-199.659,64.434Z" transform="translate(255.468 -62.786)" fill="#ebb19c"/>
      <path id="Path_63" data-name="Path 63" d="M-202.775,64.434a1.293,1.293,0,0,1,.77,1.658l-2.661,7.293a1.3,1.3,0,0,0-.77-1.658,27.2,27.2,0,0,0-34.838,16.2l2.661-7.289A27.2,27.2,0,0,1-202.775,64.434Z" transform="translate(258.584 -62.786)" fill="#e58d72"/>
      <g id="Group_50" data-name="Group 50" transform="translate(21.085 11.39)">
        <circle id="Ellipse_3" data-name="Ellipse 3" cx="1.294" cy="1.294" r="1.294" transform="translate(0 27.719)" fill="#aa7569"/>
        <circle id="Ellipse_4" data-name="Ellipse 4" cx="1.294" cy="1.294" r="1.294" transform="translate(4.437 15.567)" fill="#aa7569"/>
        <circle id="Ellipse_5" data-name="Ellipse 5" cx="1.294" cy="1.294" r="1.294" transform="translate(8.874 3.414)" fill="#aa7569"/>
        <circle id="Ellipse_6" data-name="Ellipse 6" cx="1.294" cy="1.294" r="1.294" transform="translate(9.51 24.305)" fill="#aa7569"/>
        <circle id="Ellipse_7" data-name="Ellipse 7" cx="1.294" cy="1.294" r="1.294" transform="translate(5.073 36.457)" fill="#aa7569"/>
        <circle id="Ellipse_8" data-name="Ellipse 8" cx="1.294" cy="1.294" r="1.294" transform="translate(13.947 12.152)" fill="#aa7569"/>
        <circle id="Ellipse_9" data-name="Ellipse 9" cx="1.294" cy="1.294" r="1.294" transform="translate(18.384)" fill="#aa7569"/>
      </g>
    </g>
    <g id="Group_54" data-name="Group 54" transform="translate(235.427 167.56)">
      <path id="Path_64" data-name="Path 64" d="M-85.337,75.869A9.612,9.612,0,0,1-97.82,70.482,9.613,9.613,0,0,1-92.433,58,9.61,9.61,0,0,1-79.954,63.39a9.61,9.61,0,0,1-.107,7.357,9.607,9.607,0,0,1-5.276,5.122Zm0,0" transform="translate(187.694 -54.364)" fill="#ff6f76"/>
      <g id="Group_53" data-name="Group 53">
        <g id="Group_52" data-name="Group 52" clip-path="url(#clip-path)">
          <path id="Path_65" data-name="Path 65" d="M-85.341,72.544a9.61,9.61,0,0,1-12.479-5.387A9.6,9.6,0,0,1-97.1,58.61a9.6,9.6,0,0,0,.648,2.772A9.61,9.61,0,0,0-83.969,66.77a9.568,9.568,0,0,0,4.664-3.937,9.614,9.614,0,0,1-6.036,9.711Zm0,0" transform="translate(187.695 -51.038)" fill="#f2556c"/>
          <path id="Path_66" data-name="Path 66" d="M-7.043,129.654a2.085,2.085,0,0,0,2.489-2.78L-30.465,61.6a2.088,2.088,0,0,0-3.722-.315L-60.45,104.366a12.289,12.289,0,0,1-5.946,5.018L-96.34,121.272A14.351,14.351,0,0,1-113.577,116c-.1-.158-.211-.322-.315-.487,0,0-2.522-4.406-6.877-3.7l16.068,40.472c3.65-2.479,2.461-7.415,2.461-7.415-.032-.168-.061-.34-.093-.505a14.365,14.365,0,0,1,8.915-15.721l29.945-11.888a12.261,12.261,0,0,1,7.769-.43Zm0,0" transform="translate(130.201 -46.701)" fill="#dff6fd"/>
          <path id="Path_67" data-name="Path 67" d="M-7.043,129.654a2.085,2.085,0,0,0,2.489-2.78L-30.465,61.6a2.088,2.088,0,0,0-3.722-.315l-3.1,5.083-.462,1.773-22.108,36.36a11.658,11.658,0,0,1-2.357,2.948c-.2.172-1.175.211-1.39.372a12.347,12.347,0,0,1-2.8,1.558L-96.34,121.272A14.351,14.351,0,0,1-113.577,116c-.1-.158-.211-.322-.315-.487,0,0-2.522-4.4-6.877-3.7l16.065,40.472c3.65-2.479,2.464-7.415,2.464-7.415-.032-.168-.064-.34-.093-.505a14.361,14.361,0,0,1,8.915-15.721l29.945-11.888a12.279,12.279,0,0,1,3.41-.817c.19-.014.57-.265.759-.272a12.854,12.854,0,0,1,3.886.4l39.67,10.953.831.484Zm0,0" transform="translate(130.201 -46.701)" fill="#c8effe"/>
          <path id="Path_68" data-name="Path 68" d="M-73.689,79.71-103.631,91.6a14.355,14.355,0,0,0-8.915,15.721c.029.165.057.337.09.505,0,0,1.189,4.936-2.461,7.415l-1.895-4.771c1.834-1.246,1.619-3.034,1.239-5.14a15.082,15.082,0,0,1,2.31-11.523A17.169,17.169,0,0,1-105.3,87.39L-75.359,75.5a12.286,12.286,0,0,1,7.769-.43l48.431,12.77a2.086,2.086,0,0,0,2.493-2.78l1.895,4.768a2.088,2.088,0,0,1-2.493,2.783L-65.92,79.28a12.237,12.237,0,0,0-7.769.43Zm0,0" transform="translate(140.417 -9.659)" fill="#99e6fc"/>
        </g>
      </g>
      <path id="Path_69" data-name="Path 69" d="M-55.8,123.2l-41.106-11.262a12.227,12.227,0,0,0-4.664-.355l-3.234-8.145.269-.2a12.237,12.237,0,0,0,2.883-3.252l23.164-37.99c3.693,7.891,5.008,16.917,6.315,25.521,1.658,10.885,3.94,22.591,11.168,31a27.312,27.312,0,0,0,5.2,4.685Zm0,0" transform="translate(171.408 -42.314)" fill="#ff6f76"/>
      <path id="Path_70" data-name="Path 70" d="M-56.931,90.542-98.037,79.28a11.932,11.932,0,0,0-2.686-.423,13.039,13.039,0,0,0-1.673.036l-.3.032-1.673-4.205a12.243,12.243,0,0,1,4.667.351l36.65,9.664c.3.38.6.752.921,1.121a27.312,27.312,0,0,0,5.2,4.685Zm0,0" transform="translate(172.534 -9.659)" fill="#f2556c"/>
    </g>
    <g id="Group_55" data-name="Group 55" transform="translate(62.856 13.48)">
      <path id="Path_71" data-name="Path 71" d="M-47.786,101.6l-57.053-42.435-61.4-35.561-3.432,5.208a6.252,6.252,0,0,0,1.78,8.64l108.041,71.137a6.251,6.251,0,0,0,8.636-1.78Zm0,0" transform="translate(173.86 12.667)" fill="#bed8fb" fill-rule="evenodd"/>
      <path id="Path_72" data-name="Path 72" d="M-114.424,54.111-132.821,42l-3.431,5.208a6.243,6.243,0,0,1-8.636,1.777l18.4,12.114a6.251,6.251,0,0,0,8.636-1.78Zm0,0" transform="translate(240.499 60.159)" fill="#8eaadf" fill-rule="evenodd"/>
      <path id="Path_73" data-name="Path 73" d="M-54.13,54.838a8.685,8.685,0,0,0-1.744-.885,8.4,8.4,0,0,0-1.307-.355,8.437,8.437,0,0,0-3.378-9.646,8.327,8.327,0,0,0-4.674-1.383,8.439,8.439,0,0,0-3.8-7.132A8.339,8.339,0,0,0-72.856,34.1c-3.234-.287-74.948-2.12-58.285-17.351a6.659,6.659,0,0,0-.713-.527,8.324,8.324,0,0,0-5.362-1.354,8.422,8.422,0,0,0-6.161,2.848,7.621,7.621,0,0,0-.688-.512,8.421,8.421,0,0,0-11.67,2.4,7.892,7.892,0,0,0-.777,1.49,8.433,8.433,0,0,0-9.671,3.367,8.339,8.339,0,0,0-1.354,3.929l64.507,49.785,60.8,32.717a8.417,8.417,0,0,0,3.063-2.8,8.426,8.426,0,0,0-.72-10.208,8.605,8.605,0,0,0,1.057-1.307,8.427,8.427,0,0,0,.627-8.127,8.38,8.38,0,0,0-3.027-3.539c-.251-.161-.5-.3-.752-.433a8.428,8.428,0,0,0,.19-6.781,8.35,8.35,0,0,0-2.894-4.058,4.823,4.823,0,0,0-.469-.333A8.478,8.478,0,0,0-47.3,72.286a8.437,8.437,0,0,0-3.184-8.851,8.412,8.412,0,0,0-3.646-8.6Zm0,0" transform="translate(182.021 -9.996)" fill="#ffd772" fill-rule="evenodd"/>
      <path id="Path_74" data-name="Path 74" d="M-111.065,22.42c-4.237,5.333-22.946,1.762-28.863-8.185-5.491-.272-10.405.638-13.826,3.446-.283.24-.566.476-.827.72-5.244,4.8-4.993,9.8-.29,12.3,3.442,1.827,9.628,3.435,10.85,11.244,1.479,9.385,15.109,17.136,23.519,13.919,4.714-1.805,8.414-4.588,15.427-8.507,5.8-3.245,9.163-7.336,8.776-11.609-.34-3.74-3.539-7.629-10.477-11.229-1.289-.666-2.733-1.375-4.288-2.1Zm0,0" transform="translate(205.465 -11.649)" fill="#f9f6f6" fill-rule="evenodd"/>
      <path id="Path_75" data-name="Path 75" d="M-123.109,23.53c-4.8-6.3-17.745-13.547-27.23-8.17-.466.272-.853.476-1.189.706-.9.587-1.415,1.293-2.174,3.707-1.286,4.141,2.257,10.9,8.761,11.068,3.1.082,6.29-2,11.616,1.254,10.23,6.265,14.714-.774,10.66-7.844-.14-.24-.294-.48-.444-.72Zm0,0" transform="translate(217.065 -13.478)" fill="#ffd772" fill-rule="evenodd"/>
      <path id="Path_76" data-name="Path 76" d="M-120.223,22.523a27.672,27.672,0,0,0-16.011,12.465c-.734,6.107.953,9.037,2.16,12.333,3.865,2.844,3.5,5.2,5.838,6.738.161.1,3.041.491,3.192.616a27.483,27.483,0,0,0,4.463-4.61,26.492,26.492,0,0,0,2.557-4.112,27.569,27.569,0,0,0,1.2-21.721c-.767-2.189-1.178-2.393-3.4-1.709Zm0,0" transform="translate(262.381 8.97)" fill="#a7e9a6" fill-rule="evenodd"/>
      <path id="Path_77" data-name="Path 77" d="M-104.177,39.735a25.211,25.211,0,0,0-17.39-9.675,23.793,23.793,0,0,0-3.743-.068c-2.944.236-9.374,3.507-9.27,6.444,1.4,1.06,2.55,4.882,3.073,6.447a49.254,49.254,0,0,0,4.334,3.972c1.372.9,3.245,1.157,3.883,2.554A25.2,25.2,0,0,0-104.514,43.2c1.612-1.383,1.651-1.805.337-3.467Zm0,0" transform="translate(267.109 29.041)" fill="#4fc9af" fill-rule="evenodd"/>
      <path id="Path_78" data-name="Path 78" d="M-31.791,104.214-163.068,17.776a2.2,2.2,0,0,0-3.037.623l-3.944,5.989a9.383,9.383,0,0,0,2.669,12.956L-42.1,119.835a9.392,9.392,0,0,0,12.963-2.665l3.944-5.985a2.208,2.208,0,0,0-.627-3.041Zm0,0" transform="translate(171.581 -3.319)" fill="#f9f6f6" fill-rule="evenodd"/>
      <path id="Path_79" data-name="Path 79" d="M-106.825,51.585a8.433,8.433,0,0,0-3.181-8.847,8.423,8.423,0,0,0-3.65-8.6,8.685,8.685,0,0,0-1.744-.885,8.4,8.4,0,0,0-1.307-.355,8.437,8.437,0,0,0-3.378-9.646c-.226-.147-.458-.276-.688-.4a49.609,49.609,0,0,1-8.063,24.128,49.477,49.477,0,0,1-15.646,15.083l42.725,28.132a8.459,8.459,0,0,0,3.063-2.8,8.426,8.426,0,0,0-.72-10.208,8.605,8.605,0,0,0,1.057-1.307,8.427,8.427,0,0,0,.627-8.127,8.38,8.38,0,0,0-3.027-3.539c-.251-.161-.5-.3-.752-.433a8.428,8.428,0,0,0,.19-6.781,8.35,8.35,0,0,0-2.894-4.058,4.826,4.826,0,0,0-.469-.333,8.609,8.609,0,0,0-2.142-1.017Zm0,0" transform="translate(241.547 10.705)" fill="#fbba58" fill-rule="evenodd"/>
      <path id="Path_80" data-name="Path 80" d="M-124.156,45.952a27.569,27.569,0,0,0,1.2-21.721c-.767-2.189-1.178-2.393-3.4-1.709-.878.261-1.737.57-2.586.91a27.344,27.344,0,0,1-1.773,19.9,27.011,27.011,0,0,1-2.565,4.1c-.251.33-.505.645-.759.96a8.45,8.45,0,0,1,.247,4.925,8.609,8.609,0,0,1,2.142,1.017,4.739,4.739,0,0,1,.473.337,27.483,27.483,0,0,0,4.463-4.61,26.492,26.492,0,0,0,2.557-4.112Zm0,0" transform="translate(268.512 8.97)" fill="#7fdbae" fill-rule="evenodd"/>
      <path id="Path_81" data-name="Path 81" d="M-109.929,38.249c1.612-1.379,1.651-1.8.337-3.464a28.69,28.69,0,0,0-2.665-2.919,3.652,3.652,0,0,1-1.246,1.476,25.183,25.183,0,0,1-18.612,6.215,8.112,8.112,0,0,1-.369.931c.247.129.5.272.749.433a8.388,8.388,0,0,1,3.03,3.539,25.193,25.193,0,0,0,18.776-6.211Zm0,0" transform="translate(272.525 33.991)" fill="#26bb9e" fill-rule="evenodd"/>
      <path id="Path_82" data-name="Path 82" d="M-137.117,32.9c9.234,4.8,13.113-1.909,9.252-8.647-.14-.24-.294-.48-.448-.72-4.216-5.545-14.729-11.806-23.637-9.6a28.665,28.665,0,0,1,14.378,9.291c.161.247.315.487.455.727,2.031,3.55,1.92,7.1,0,8.944Zm0,0" transform="translate(222.265 -13.48)" fill="#fbba58" fill-rule="evenodd"/>
      <path id="Path_83" data-name="Path 83" d="M-131.445,46.394c4.714-1.805,8.414-4.588,15.427-8.507,5.8-3.245,9.163-7.336,8.776-11.609-.254-2.783-2.088-5.649-5.874-8.421a7.676,7.676,0,0,1,.215,1.25,9.073,9.073,0,0,1-2.529,6.759,22.807,22.807,0,0,1-6.243,4.85c-7.01,3.922-10.717,6.7-15.431,8.507-5.079,1.941-12.057-.115-17.114-4.1,3.292,8.127,15.169,14.184,22.774,11.276Zm0,0" transform="translate(216.407 -2.179)" fill="#e5e4ed" fill-rule="evenodd"/>
      <path id="Path_84" data-name="Path 84" d="M-105.27,54.516a2.208,2.208,0,0,0-.627-3.041l-18.4-12.11a2.2,2.2,0,0,1,.627,3.037l-3.944,5.985a9.377,9.377,0,0,1-12.956,2.669l18.389,12.11A9.391,9.391,0,0,0-109.214,60.5Zm0,0" transform="translate(251.658 53.351)" fill="#e5e4ed" fill-rule="evenodd"/>
      <path id="Path_85" data-name="Path 85" d="M-133.357,34.9a2.528,2.528,0,0,1-1.092-1.612,4.022,4.022,0,0,0-1.744-2.572,4.03,4.03,0,0,0-3.052-.587,2.542,2.542,0,0,1-3.005-1.981,2.544,2.544,0,0,1,1.977-3.009,9.114,9.114,0,0,1,6.881,1.322,9.1,9.1,0,0,1,3.933,5.8,2.552,2.552,0,0,1-1.981,3.009,2.553,2.553,0,0,1-1.916-.369Zm0,0" transform="translate(247.168 16.138)" fill="#e29d7b"/>
      <path id="Path_86" data-name="Path 86" d="M-136.818,38.551a2.546,2.546,0,0,1-1.1-1.612,2.546,2.546,0,0,1,1.981-3.009,9.1,9.1,0,0,1,6.881,1.322,9.078,9.078,0,0,1,3.929,5.8,2.546,2.546,0,0,1-1.977,3.009,2.546,2.546,0,0,1-3.009-1.981,4.041,4.041,0,0,0-1.744-2.572,4.044,4.044,0,0,0-3.052-.584,2.544,2.544,0,0,1-1.913-.369Zm0,0" transform="translate(258.369 38.829)" fill="#e29d7b"/>
      <path id="Path_87" data-name="Path 87" d="M-145.114,32.321a2.512,2.512,0,0,1-1.089-1.6l0-.014a2.544,2.544,0,0,1,1.981-3.005,2.542,2.542,0,0,1,3.005,1.977A2.553,2.553,0,0,1-143.2,32.69a2.537,2.537,0,0,1-1.916-.369Zm0,0" transform="translate(236.96 23.088)" fill="#e29d7b"/>
      <path id="Path_88" data-name="Path 88" d="M-161.066,22.7a2.5,2.5,0,0,1-1.089-1.6l0-.014a2.541,2.541,0,0,1,1.981-3.005,2.547,2.547,0,0,1,3.009,1.977,2.555,2.555,0,0,1-1.981,3.016,2.537,2.537,0,0,1-1.916-.369Zm0,0" transform="translate(195.773 -1.755)" fill="#e29d7b"/>
      <path id="Path_89" data-name="Path 89" d="M-137.73,34.547a2.544,2.544,0,0,1-.731-3.525l.007-.007a2.547,2.547,0,0,1,3.528-.727,2.55,2.55,0,0,1,.724,3.528,2.548,2.548,0,0,1-3.528.731Zm0,0" transform="translate(256.011 28.832)" fill="#e29d7b"/>
      <path id="Path_90" data-name="Path 90" d="M-141.593,35.243a2.537,2.537,0,0,1-1.085-1.587l0-.014a2.549,2.549,0,0,1,1.956-3.023,2.546,2.546,0,0,1,3.023,1.956,2.55,2.55,0,0,1-1.952,3.03,2.54,2.54,0,0,1-1.938-.362Zm0,0" transform="translate(246.048 30.625)" fill="#e29d7b"/>
    </g>
    <g id="Group_56" data-name="Group 56" transform="translate(-115.337 23.903)">
      <path id="Path_91" data-name="Path 91" d="M-189.648,20.191a11.173,11.173,0,0,0-13.138-2.74,11.139,11.139,0,0,0-5.989,7.028,6.392,6.392,0,0,0-2.769.605,6.393,6.393,0,0,0-3.525,7.16,7.98,7.98,0,0,0-1.669.566,7.98,7.98,0,0,0-3.833,10.613,7.982,7.982,0,0,0,10.613,3.836l26.008-12.2a7.983,7.983,0,0,0,3.836-10.613,7.987,7.987,0,0,0-9.535-4.252Zm0,0" transform="translate(221.329 -16.39)" fill="#faf0db"/>
      <path id="Path_92" data-name="Path 92" d="M-219.788,39.481l33.455,58.625a3.194,3.194,0,0,0,4.13,1.311l23.562-11.057a3.19,3.19,0,0,0,1.63-4.012l-23.705-63.2Zm0,0" transform="translate(225.306 -4.102)" fill="#c7c6c5"/>
      <path id="Path_93" data-name="Path 93" d="M-158.222,81.11l-22.494-59.961-39.071,18.332L-188.045,95.1Zm0,0" transform="translate(225.306 -4.102)" fill="#fcce0b"/>
      <path id="Path_94" data-name="Path 94" d="M-187.215,88.109l14.911-7L-194.8,21.149l-19.536,9.166Zm0,0" transform="translate(239.388 -4.102)" fill="#f9a21e"/>
      <path id="Path_95" data-name="Path 95" d="M-178.216,26.793l-2.16-5.76a3.191,3.191,0,0,0-4.345-1.766l-34.2,16.043a3.194,3.194,0,0,0-1.418,4.474l3.048,5.341Zm0,0" transform="translate(222.806 -9.746)" fill="#f0d9ba"/>
      <path id="Path_96" data-name="Path 96" d="M-198.37,19.267l-17.1,8.02,4.069,8.672,19.536-9.166-2.16-5.76a3.191,3.191,0,0,0-4.345-1.766Zm0,0" transform="translate(236.455 -9.746)" fill="#eec08e"/>
      <path id="Path_97" data-name="Path 97" d="M-207.62,53.377l17.562-8.238a3.19,3.19,0,0,0,1.63-4.012l-1.211-3.238-14.911,7a6.383,6.383,0,0,1-3.07,8.489Zm0,0" transform="translate(256.723 39.119)" fill="#a0a5a9"/>
      <path id="Path_98" data-name="Path 98" d="M-206.189,39.343a3.194,3.194,0,0,1-1.533,4.248,3.19,3.19,0,0,1-4.245-1.537,3.19,3.19,0,0,1,1.533-4.245,3.192,3.192,0,0,1,4.245,1.533Zm0,0" transform="translate(244.718 38.134)" fill="#f9a21e"/>
      <path id="Path_99" data-name="Path 99" d="M-210.76,30.555a2.4,2.4,0,0,1-1.15,3.184,2.393,2.393,0,0,1-3.184-1.15,2.392,2.392,0,0,1,1.15-3.184,2.391,2.391,0,0,1,3.184,1.15Zm0,0" transform="translate(236.838 16.626)" fill="#f9a21e"/>
      <path id="Path_100" data-name="Path 100" d="M-208.29,35.029a1.6,1.6,0,0,1-.767,2.124,1.6,1.6,0,0,1-2.12-.767,1.6,1.6,0,0,1,.767-2.124,1.6,1.6,0,0,1,2.12.767Zm0,0" transform="translate(247.145 29.367)" fill="#f9a21e"/>
      <path id="Path_101" data-name="Path 101" d="M-204.025,27.174a3.19,3.19,0,0,1-1.533,4.245,3.189,3.189,0,0,1-4.245-1.533,3.189,3.189,0,0,1,1.533-4.245,3.186,3.186,0,0,1,4.245,1.533Zm0,0" transform="translate(250.305 6.708)" fill="#fcce0b"/>
      <path id="Path_102" data-name="Path 102" d="M-201.542,36.565a2.394,2.394,0,0,1-1.15,3.184,2.394,2.394,0,0,1-3.184-1.15,2.394,2.394,0,0,1,1.15-3.184,2.394,2.394,0,0,1,3.184,1.15Zm0,0" transform="translate(260.638 32.144)" fill="#fcce0b"/>
      <path id="Path_103" data-name="Path 103" d="M-207.115,30.54a1.594,1.594,0,0,1-.767,2.124A1.591,1.591,0,0,1-210,31.9a1.6,1.6,0,0,1,.767-2.124,1.6,1.6,0,0,1,2.12.767Zm0,0" transform="translate(250.179 17.777)" fill="#fcce0b"/>
      <path id="Path_104" data-name="Path 104" d="M-215.252,28.474l8.135,17.34a3.194,3.194,0,0,0,4.248,1.533,3.192,3.192,0,0,0,1.533-4.245l-2.711-5.781a3.19,3.19,0,0,1,1.533-4.245,3.192,3.192,0,0,1,4.245,1.533,3.2,3.2,0,0,0,4.248,1.537,3.2,3.2,0,0,0,1.533-4.248l-5.423-11.559a3.2,3.2,0,0,0-4.248-1.533l-11.559,5.423a3.193,3.193,0,0,0-1.533,4.245Zm0,0" transform="translate(236.237 -10.933)" fill="#faf0db"/>
      <path id="Path_105" data-name="Path 105" d="M-217.626,24.089a3.063,3.063,0,0,0-1.358,4.288L-184.9,88.112a1.694,1.694,0,0,0,2.185.691,1.693,1.693,0,0,0,.784-2.31L-213.607,25.45a3.063,3.063,0,0,0-4.019-1.361Zm0,0" transform="translate(226.343 2.737)" fill="#fff"/>
    </g>
  </g>
</svg>
