<?xml version="1.0" encoding="utf-8"?>
<!-- Generator: Adobe Illustrator 25.2.0, SVG Export Plug-In . SVG Version: 6.00 Build 0)  -->
<svg version="1.1" id="Warstwa_1" xmlns="http://www.w3.org/2000/svg" xmlns:xlink="http://www.w3.org/1999/xlink" x="0px" y="0px"
	 viewBox="0 0 633.2 890.3" style="enable-background:new 0 0 633.2 890.3;" xml:space="preserve">
<style type="text/css">
	.st0{opacity:8.000000e-02;enable-background:new    ;}
	.st1{fill:#27365F;}
	.st2{fill:#354B7C;}
	.st3{fill:#1F2C49;}
	.st4{fill:#FFDAD7;}
	.st5{opacity:0.4;fill:#ED9D9D;enable-background:new    ;}
	.st6{fill:#BA4232;}
	.st7{fill:#CE4136;}
	.st8{opacity:0.6;fill:#FFADA9;enable-background:new    ;}
	.st9{fill:#491915;}
	.st10{fill:#253449;}
	.st11{fill:#F2556C;}
	.st12{fill:#0045DA;}
	.st13{fill:#003DBF;}
	.st14{fill:#FF6F76;}
	.st15{fill:#FF8095;}
	.st16{fill:#EBB19C;}
	.st17{fill:#E58D72;}
	.st18{fill:#E48C9B;}
	.st19{fill:#CC5B6F;}
	.st20{fill:#AA7569;}
	.st21{fill:#79CB9C;}
	.st22{fill:#63AC7D;}
	.st23{fill:#F1CC76;}
	.st24{fill:#EBB15D;}
	.st25{fill:#9A6758;}
	.st26{clip-path:url(#SVGID_2_);}
	.st27{fill:#DFF6FD;}
	.st28{fill:#C8EFFE;}
	.st29{fill:#99E6FC;}
	.st30{fill:#FAF0DB;}
	.st31{fill:#C7C6C5;}
	.st32{fill:#FCCE0B;}
	.st33{fill:#F9A21E;}
	.st34{fill:#F0D9BA;}
	.st35{fill:#EEC08E;}
	.st36{fill:#A0A5A9;}
	.st37{fill:#FFFFFF;}
	.st38{fill:#F3F5F9;}
	.st39{fill:#E1E6F0;}
	.st40{fill:#CFD7E6;}
	.st41{fill:#3D4566;}
	.st42{fill:#2E2E4D;}
	.st43{fill:#4D5E80;}
</style>
<g id="Group_57" transform="translate(262.38 -13.48)">
	<ellipse id="Ellipse_2" class="st0" cx="53" cy="826.7" rx="248.7" ry="60.9"/>
	<g id="Group_49" transform="translate(-262.38 247.459)">
		<g id="Group_41" transform="translate(213.302)">
			<g id="Group_32">
				<path id="Path_1" class="st1" d="M64.6,22.4C95-9.1,143.3-3.7,164.1,15.9c17.9,16.8,17.4,67.7,21,90.4
					c3.6,21.5,18.3,31.4,20.6,53c3,27.8-17.2,55.5-86.4,41.4c-31.6-6.4-64.3,9-94.8-2.4C7.8,191.8,1,181.9,0.1,163.1
					c-1.4-28.6,25.3-41,22.5-60.9C15.5,53,22.6,7.1,64.6,22.4z"/>
				<path id="Path_2" class="st2" d="M17.1,185.1c3.7-14.6,12.6-27.2,14.6-41.8c2.6-17.3-2.6-35-2.1-52.8c0-17.3,3.7-36.6,17.8-48.6
					c9.4-7.8,21.4-9.9,33.5-11.5c10.5-16.4,25.4-25.2,42.4-30.1c-20-1.2-42.1,5-58.7,22.2c-42-15.3-49,30.6-42,79.9
					c2.8,19.8-23.9,32.2-22.5,60.9c0.8,15.1,5.3,24.4,15.7,30.9C15.9,191,16.3,188,17.1,185.1z"/>
				<path id="Path_3" class="st3" d="M73.2,56.9c22.8-23.6,35.6,14.7,51.3,29.4c13.4,12.6,36.4,16.5,39.1,33.5
					c2.7,16.1,13.7,23.5,15.4,39.7c2.2,20.8-12.9,41.6-64.7,31c-23.7-4.8-48.2,6.7-71-1.8c-12.5-4.9-17.6-12.3-18.3-26.4
					c-1.1-21.4,18.9-30.7,16.8-45.6C36.5,79.9,65.7,71.6,73.2,56.9z"/>
				<g id="Group_31" transform="translate(12.117 11.632)">
					<path id="Path_4" class="st3" d="M178.8,129.7c-4.1-11.7-10.3-22.5-13.5-34.5c-3.6-13.6-3.5-27.9-5.9-41.8
						c-3.4-19.6-14.2-37.5-31.7-47.3c-21.5-12-46.6-3.9-68.1,3.4c-1.6,0.6-0.9,3.2,0.7,2.6c22.5-7.7,46.1-14.8,68.3-2.4
						c19.3,10.8,27,33,29.6,53.7c1.2,9.8,1.8,19.6,3.8,29.4c1.9,9.3,5.8,18,9.6,26.6c4.8,10.9,9.9,22.2,7.3,34.3
						c-2,9.4-9.6,16.8-16.4,23.1c-1.3,1.2,0.6,3.1,1.9,1.9C179.8,164.3,185.9,150.2,178.8,129.7z"/>
					<path id="Path_5" class="st3" d="M64.1,16.8c-1.7,0.2-1.7,2.9,0,2.7c22.9-2.5,49.8-6.4,68.8,9.7c22.4,18.9,17.2,55.8,13.6,81.2
						c-0.2,1.7,2.3,2.4,2.6,0.7c3.8-26.8,7.5-57.7-10.8-80.3C121,9.5,87.8,14.2,64.1,16.8z"/>
					<path id="Path_6" class="st3" d="M49.1,19.5c-30,6.9-29.9,41.8-29.8,66.6c0.1,10.9-0.3,21.5-3.2,32.1
						c-2.8,10-9.7,18.2-13.6,27.7c-5.5,13.5-1.9,30.5,13.2,34.7c0.7,0.2,1.4-0.3,1.6-1c0.2-0.7-0.2-1.4-0.9-1.6
						c-23.9-6.7-10.3-34-2.6-47.8c7.6-13.7,8.4-28.8,8.3-44.1c-0.2-23.5-0.8-57.4,27.8-64C51.5,21.7,50.8,19.1,49.1,19.5z"/>
					<g id="Group_28" transform="translate(11.537 12.585)">
						<path id="Path_7" class="st3" d="M30.7,0C5.2,6.1-2.9,29.9,0.9,54.1c0.3,1.7,2.9,1,2.6-0.7c-3.6-22.7,3.9-45,27.9-50.7
							C33.1,2.2,32.4-0.4,30.7,0L30.7,0z"/>
					</g>
					<g id="Group_29" transform="translate(86.978 22.613)">
						<path id="Path_8" class="st3" d="M0.4,2.3c13.4,12.8,27.5,23.9,46,28.1c1.7,0.4,2.4-2.2,0.7-2.6c-18.1-4.1-31.8-15-44.8-27.4
							C1.1-0.8-0.8,1.1,0.4,2.3L0.4,2.3z"/>
					</g>
					<g id="Group_30" transform="translate(34.809 27.709)">
						<path id="Path_9" class="st3" d="M18.2,0.6C14,7.3,7.4,12.2,0.7,16.1C0,16.5-0.2,17.3,0.2,18c0.4,0.6,1.2,0.8,1.8,0.5
							C9.2,14.3,16,9.1,20.5,2C21.4,0.5,19.1-0.8,18.2,0.6L18.2,0.6z"/>
					</g>
				</g>
			</g>
			<g id="Group_33" transform="translate(17.156 113.03)">
				<path id="Path_10" class="st4" d="M0,15.4c0,8.5,6.9,15.4,15.4,15.4c0,0,0,0,0,0c8.5,0,15.4-6.9,15.4-15.4
					C30.8,6.9,23.9,0,15.4,0C6.9,0,0,6.9,0,15.4z"/>
				<path id="Path_11" class="st5" d="M5.4,15.4c0,5.5,4.5,10,10,10c5.5,0,10-4.5,10-10c0-5.5-4.5-10-10-10c0,0,0,0,0,0
					C9.9,5.4,5.4,9.8,5.4,15.4C5.4,15.4,5.4,15.4,5.4,15.4z"/>
			</g>
			<g id="Group_34" transform="translate(151.854 113.03)">
				<path id="Path_12" class="st4" d="M30.8,15.4c0,8.5-6.9,15.4-15.4,15.4l0,0C6.9,30.8,0,23.9,0,15.4c0,0,0,0,0,0
					C0,6.9,6.9,0,15.4,0C23.9,0,30.8,6.9,30.8,15.4z"/>
				<path id="Path_13" class="st5" d="M25.4,15.4c0,5.5-4.5,10-10,10c-5.5,0-10-4.5-10-10c0-5.5,4.5-10,10-10c0,0,0,0,0,0
					C20.9,5.4,25.4,9.9,25.4,15.4C25.4,15.4,25.4,15.4,25.4,15.4z"/>
			</g>
			<path id="Path_14" class="st4" d="M125.8,201.5v-28.8c0-13.1-10.6-23.7-23.7-23.8c0,0,0,0,0,0c-13.1,0-23.7,10.6-23.7,23.8v28.8
				c-32.8,10.4-55.2,40.8-55.2,75.3c0,43.6,35.3,78.9,78.9,78.9c43.6,0,78.9-35.3,78.9-78.9l0,0C181,242.4,158.6,211.9,125.8,201.5z
				"/>
			<path id="Path_15" class="st5" d="M125.8,179.8v-7.1c0-13.1-10.6-23.7-23.7-23.8c0,0,0,0,0,0c-13.1,0-23.7,10.6-23.7,23.8v10.5
				c6.4,2.4,13.1,3.6,19.9,3.6C107.9,186.9,117.3,184.4,125.8,179.8z"/>
			<path id="Path_16" class="st4" d="M148.9,74.8c-9-3.4-18.4-6-27-10.5c-7.6-4-14.9-8.7-21.6-14.1c-5.4-4.3-11-8.7-14.9-14.5
				c-0.2,0.1-0.5,0.1-0.7,0.2C77.9,46.3,67.3,55,58,62.4c-4.8,3.8-9.9,7.4-15.1,10.7c-4.8,10.6-7.3,22.1-7.3,33.8
				c0,40.4,28.8,73.2,64.3,73.2s64.3-32.8,64.3-73.2c0-10-1.8-19.9-5.4-29.2C155.4,76.9,152.1,76,148.9,74.8z"/>
			<path id="Path_17" class="st5" d="M48.6,106.9c0-21.8,8.4-41.3,21.6-54.7c-4,3.6-8.2,7-12.2,10.2c-4.8,3.8-9.9,7.4-15.1,10.7
				c-4.8,10.6-7.3,22.1-7.3,33.8c0,40.4,28.8,73.2,64.3,73.2c2.2,0,4.3-0.1,6.5-0.4C73.9,176,48.6,144.8,48.6,106.9z"/>
			<g id="Group_40" transform="translate(37.143 79.252)">
				<g id="Group_35" transform="translate(67.4 27.036)">
					<path id="Path_18" class="st6" d="M0.5,1C0.2,8.2-0.2,15.5,0.1,22.7c0,0.6,0.5,1,1.1,1c0.1,0,0.1,0,0.2,0
						c2.5-0.4,5.2-0.3,7.7,0.3c4.7,1.1,3.1,6.1-0.5,7.3c-1.5,0.4-3,0.6-4.5,0.5c-1.3,0-1.3,2,0.1,2.1C8.4,34,16.3,32,14.5,26.1
						c-1.6-5.2-9.4-5.1-13.7-4.4c0.4,0.3,0.9,0.6,1.3,1C1.9,15.4,2.2,8.2,2.5,1C2.6-0.4,0.5-0.3,0.5,1L0.5,1z"/>
				</g>
				<g id="Group_36" transform="translate(41.882 66.517)">
					<path id="Path_19" class="st7" d="M0.3,2.1c5.4,7.6,11.8,13,21.4,13.7c9,0.7,18.7-3.5,23.2-11.4c0.4-0.7,0.1-1.6-0.6-1.9
						c-0.7-0.4-1.5-0.2-1.9,0.5c-4.2,7.5-12.5,9.9-20.7,10C13.3,13,7.2,6.9,2.7,0.6C1.7-0.9-0.8,0.6,0.3,2.1L0.3,2.1z"/>
				</g>
				<g id="Group_37" transform="translate(0 42.719)">
					<path id="Path_20" class="st8" d="M119.9,0c-10.2,0-18.4,8.2-18.4,18.4c0,0,0,0,0,0c0,6.4,3.4,12.4,8.8,15.7
						c7.6-9.7,12.8-21.1,15.1-33.2C123.7,0.3,121.8,0,119.9,0z"/>
					<path id="Path_21" class="st8" d="M22.5,18.6c0-10.2-8.2-18.4-18.4-18.4c0,0,0,0,0,0C2.7,0.2,1.3,0.4,0,0.7
						c2.2,12,7.3,23.2,14.8,32.9C19.6,30.1,22.5,24.6,22.5,18.6z"/>
				</g>
				<g id="Group_38" transform="translate(22.658 27.059)">
					<path id="Path_22" class="st9" d="M23.8,2.9c-1.5,3.4-4.3,8.8-8.9,7.3c-4.2-1.4-6.6-4.8-7.3-9.1C7.2-0.8,4.5-0.1,4.8,1.8
						C4.8,2.1,5,2.5,5.1,2.9C3.8,3.1,2.6,3.2,1.3,3.3c-1.7,0.1-1.7,2.8,0,2.7c1.6-0.1,3.1-0.3,4.6-0.6l0,0C6.2,6,6.5,6.5,6.8,7.1
						C6,7.3,5.2,7.6,4.3,7.8c-1.7,0.4-1,3,0.7,2.6c1.2-0.3,2.3-0.7,3.4-0.9l0,0c2.1,2.4,4.8,4,8,3.8c5.5-0.4,8-4.9,10.1-9.5
						C27.3,2,24.6,1.2,23.8,2.9z"/>
					<path id="Path_23" class="st9" d="M89.9,3.5c-1.2-0.1-2.4-0.3-3.5-0.4c0.1-0.3,0.2-0.6,0.2-0.8c0.4-1.8-2.3-2.6-2.7-0.8
						c-0.9,4.1-4.5,9.4-9.4,8.8c-3.9-0.5-5.6-4.6-6.9-7.8c-0.7-1.7-3.4-1-2.8,0.7c1.9,4.9,4.6,10.1,10.6,10c2.9-0.1,5.6-1.5,7.5-3.7
						c1.1,0.3,2.1,0.7,3.2,0.9c1.7,0.4,2.4-2.2,0.7-2.6c-0.8-0.2-1.5-0.4-2.2-0.6c0.3-0.5,0.5-0.9,0.8-1.4c1.5,0.2,3,0.4,4.5,0.6
						C91.7,6.3,91.7,3.6,89.9,3.5z"/>
				</g>
				<g id="Group_39" transform="translate(32.652)">
					<path id="Path_24" class="st10" d="M72.6,3.2c-2.2-2-5.1-3.2-8-3.2c-2.3-0.1-2.3,3.5,0,3.6c2,0,4,0.8,5.5,2.2
						C71.7,7.3,74.3,4.8,72.6,3.2z"/>
					<path id="Path_25" class="st10" d="M8.6,0c-3,0.1-5.8,1.2-8,3.2c-1.7,1.6,0.8,4.1,2.5,2.5c1.5-1.4,3.5-2.2,5.5-2.2
						C10.9,3.5,10.9-0.1,8.6,0z"/>
				</g>
			</g>
		</g>
		<g id="Group_43" transform="translate(0 228.92)">
			<path id="Path_26" class="st4" d="M191.7,67.6c0,0-13.9,52.9-29.1,46.6c-15.2-6.3-75.9-85.7-75.9-85.7S81,2.4,63.1,0.3
				S30,8.5,36.2,13.4s16.9-6,22.9,0.1c5,5.1,8,15.7-5.3,17.8c-13.3,2.1-20.5-2.8-21.4-12.4C31.9,13,32.9,8.9,29.7,7
				c-2.2-1.4-6.4-0.2-7.7,5.9c-2.7,13.1,7.4,26.9,7.4,26.9S18.8,37.6,12,23.2c-2.8-5.9-10.3-7.1-7.6,4.1c1.9,7.8,7,14.8,19,24.9
				c0,0-3.4,1.8-13.6-4.5c-2.8-1.8-8.8-4.9-9.6-1.3c-0.5,1.9,1.7,6.5,8.8,10.9c14,8.8,48.5,16.6,74.5-3.6c0,0,26.6,131.8,73.1,136.8
				c53.2,5.7,93.4-102.4,93.4-102.4L191.7,67.6z"/>
			<g id="Group_42" transform="translate(20.674 38.535)">
				<path id="Path_27" class="st5" d="M13.7,11.3c-3.9,1.5-8.6,2.7-12.8,2c-0.9-0.1-1.3,1.2-0.4,1.4c4.5,0.7,9.3-0.5,13.5-2
					C14.9,12.3,14.5,11,13.7,11.3z"/>
				<path id="Path_28" class="st5" d="M20.3,1.6C15.8,1.9,11.3,1.4,7,0C6.6-0.1,6.3,0.2,6.2,0.6C6.1,0.9,6.3,1.3,6.6,1.4
					c4.4,1.4,9,1.9,13.6,1.6C21.2,3,21.2,1.5,20.3,1.6z"/>
			</g>
			<path id="Path_29" class="st5" d="M184.8,88.6c13,21.2,21.4,44.3,5.9,66.3c-10.7,15-25.5,25.8-41.9,33.6c2.5,1.1,5.1,1.8,7.8,2.1
				c53.2,5.7,93.4-102.4,93.4-102.4l-58.2-20.6C189.7,74.7,187.4,81.7,184.8,88.6z"/>
		</g>
		<g id="Group_45" transform="translate(380.748 228.92)">
			<path id="Path_30" class="st4" d="M58.2,67.6c0,0,13.9,52.9,29.1,46.6s75.9-85.7,75.9-85.7s5.6-26.1,23.6-28.2
				s33.2,8.2,26.9,13.1s-16.9-6-22.9,0.1c-5,5.1-8,15.7,5.3,17.8c13.3,2.1,20.5-2.8,21.4-12.4c0.6-5.9-0.4-10.1,2.7-11.9
				c2.2-1.4,6.4-0.2,7.7,5.9c2.7,13.1-7.4,26.9-7.4,26.9s10.8-2.2,17.5-16.6c2.8-5.9,10.3-7.1,7.6,4.1c-1.9,7.8-7,14.8-19,24.9
				c0,0,3.4,1.8,13.6-4.5c2.8-1.8,8.8-4.9,9.6-1.3c0.5,1.9-1.7,6.5-8.8,10.9c-14,8.8-48.5,16.6-74.5-3.6c0,0-26.6,131.8-73.1,136.8
				C40.1,196.3,0,88.2,0,88.2L58.2,67.6z"/>
			<g id="Group_44" transform="translate(208.295 38.535)">
				<path id="Path_31" class="st5" d="M7.3,11.3c3.9,1.5,8.6,2.7,12.8,2c0.9-0.1,1.3,1.2,0.4,1.4c-4.5,0.7-9.3-0.5-13.5-2
					C6.1,12.3,6.4,11,7.3,11.3z"/>
				<path id="Path_32" class="st5" d="M0.7,1.6c4.5,0.3,9-0.3,13.2-1.6c0.4-0.1,0.8,0.2,0.9,0.5c0.1,0.4-0.1,0.7-0.5,0.8
					C9.9,2.8,5.3,3.3,0.7,3C-0.2,3-0.2,1.5,0.7,1.6z"/>
			</g>
			<path id="Path_33" class="st5" d="M92.9,134.5c-35.8-5.1-44.4-32.1-31.9-57.7c-1.7-5.4-2.7-9.2-2.7-9.2L0,88.2
				c0,0,40.1,108.1,93.4,102.4c19.9-2.1,36.1-27.5,48.2-55.8C125.7,134.5,110.2,136.7,92.9,134.5z"/>
		</g>
		<path id="Path_34" class="st11" d="M424.6,496.3c0,33.4-37.5,60.5-83.8,60.5h-50.9c-46.3,0-83.8-27.1-83.8-60.5l0,0
			c0-33.4,37.5-60.5,83.8-60.5h50.9C387.1,435.9,424.6,462.9,424.6,496.3L424.6,496.3z"/>
		<g id="Group_46" transform="translate(183.624 204.816)">
			<path id="Path_35" class="st12" d="M263.4,97.5C237.9,11.5,173,0,173,0c-4.3,13.6-15.1,34.3-41.3,34.3S94.7,13.6,90.5,0
				c0,0-64.9,11.5-90.5,97.5c0,0,16.7,15.8,44.7,20.9c-4.6,59.4-7,131.1-7,131.1s49.7,6.2,94.1,6.2s94.1-6.2,94.1-6.2
				s-2.4-71.7-7-131.1C246.7,113.3,263.4,97.5,263.4,97.5z"/>
			<path id="Path_36" class="st13" d="M131.7,255.7c4.7,0,9.5-0.1,14.2-0.2C78.7,186.1,46.8,95.9,46.8,95.9l-2.1,22.5
				c-4.6,59.4-7,131.1-7,131.1S87.4,255.7,131.7,255.7z"/>
			<path id="Path_37" class="st13" d="M218.7,118.4c15.7-2.8,30.4-9.5,42.9-19.4c-31.3-7.4-45.1-28.1-45.1-28.1L218.7,118.4z"/>
		</g>
		<g id="Group_47" transform="translate(45.741 388.404)">
			<path id="Path_38" class="st4" d="M363.2,168.4c20.5,14.2,74.9,46.2,77,51.5c5.8,14.3-32.7,49.3-36.3,47.9s-37.3-64.5-40.2-67.2
				c-2.9-2.7-183.7-27.8-266-65.8C51.7,113.6-9.5,58.2,3.5,25.9S82.9-5,126.6,22.4S340.3,152.6,363.2,168.4z"/>
			<path id="Path_39" class="st14" d="M127.6,20.8C106.7,7.8,79.5,0,54.9,0C27.6,0,8.3,9.2,1.8,25.3C-11.4,58.1,49.5,114.5,97,136.5
				c17.1,7.9,39.9,15.9,67.8,23.7l1.3,0.4l0.7-1.2c17.7-29.7,37.7-55,59.5-75.3l1.7-1.6l-16.8-10.2
				C174.9,49.9,143.4,30.7,127.6,20.8z"/>
			<path id="Path_40" class="st5" d="M363.2,168.4c-11-7.6-56.3-35.5-105.1-65.4c-21.9,20.5-43.8,41.6-65.6,62.7
				c42.1,10.6,86.1,19.1,119,25.1c23.7-3.1,47.4-6.4,71.1-9.7C375,176.2,368.1,171.8,363.2,168.4z"/>
		</g>
		<g id="Group_48" transform="translate(144.115 388.404)">
			<path id="Path_41" class="st4" d="M77.6,168.4c-20.5,14.2-74.9,46.2-77,51.5c-5.8,14.3,32.7,49.3,36.3,47.9s37.3-64.5,40.2-67.2
				s183.7-27.8,266-65.8c46-21.3,107.3-76.7,94.3-108.9S358-5,314.2,22.4S100.5,152.6,77.6,168.4z"/>
			<path id="Path_42" class="st5" d="M405.5,34c10.6-2.7,21.3-5,32.1-7c-0.1-0.3-0.2-0.7-0.3-1C424.3-6.3,358-5,314.2,22.4
				S100.5,152.6,77.6,168.4c-0.2,0.2-0.5,0.4-0.8,0.5c40.9-19.2,82.3-37.3,124.1-54.8C267.9,85.8,335.8,52.8,405.5,34z"/>
			<path id="Path_43" class="st14" d="M439,25.3C432.5,9.2,413.2,0,386,0c-24.6,0-51.8,7.8-72.7,20.8c-15.5,9.7-46.1,28.4-81.6,50.1
				l-9.2,5.6l1.7,2.3c1.4,1.9,2.8,3.8,4.1,5.6c3.9,5.3,8,10.5,12,15.6c6.8,8.6,13.7,17.5,19.6,26.5c5.9,9.3,12.7,20.4,18.8,31.6
				l0.7,1.3l1.4-0.4c25.8-7.4,47-15,63.1-22.4C391.3,114.5,452.2,58.1,439,25.3z"/>
			<path id="Path_44" class="st15" d="M439.4,26.6c-0.2-0.5-0.3-0.9-0.5-1.4C432.5,9.2,413.2,0,386,0c-24.6,0-51.8,7.8-72.7,20.8
				c-15.5,9.7-46.1,28.4-81.6,50.1l-9.2,5.6l1.7,2.3c1.4,1.9,2.8,3.8,4.1,5.6c3.4,4.5,6.9,9,10.3,13.5C293.3,74,348.8,49.3,405.5,34
				C416.7,31.2,428,28.7,439.4,26.6z"/>
		</g>
	</g>
	<g id="Group_51" transform="translate(-201.508 190.089)">
		<path id="Path_45" class="st16" d="M74,8.3c8.7,3.2,13.2,12.8,10,21.6l-12.4,34c-3.2,8.7-12.8,13.2-21.6,10c0,0,0,0,0,0
			c-0.7-0.2-1-1-0.8-1.7c0,0,0,0,0,0l1-2.7c0.1-0.4,0.5-0.7,0.9-0.8c4.1-1.1,6.6-5.3,5.5-9.5c-0.1-0.2-0.1-0.4-0.2-0.7
			c-0.2-0.6,0-1.3,0.6-1.6c3.3-1.9,4.7-5.8,3.4-9.4c-0.2-0.6,0-1.3,0.6-1.6c3.3-1.9,4.7-5.8,3.4-9.4c-0.2-0.6,0-1.2,0.6-1.6
			c3.3-1.9,4.7-5.8,3.4-9.4c-0.2-0.6,0-1.2,0.6-1.6c3.7-2.1,5-6.9,2.9-10.6c-0.1-0.2-0.2-0.4-0.4-0.6c-0.2-0.3-0.3-0.8-0.2-1.2
			l1-2.7C72.6,8.4,73.4,8.1,74,8.3C74,8.3,74,8.3,74,8.3z"/>
		<path id="Path_46" class="st17" d="M74,8.3c8.7,3.2,13.2,12.8,10,21.6l-2.7,7.3c3-8.1-0.7-17.2-8.6-21c-0.2-1.2-0.6-2.3-1.3-3.2
			c-0.2-0.3-0.3-0.8-0.2-1.2l1-2.7C72.6,8.4,73.4,8.1,74,8.3C74,8.3,74,8.3,74,8.3z"/>
		<path id="Path_47" class="st18" d="M18.2,7.6c0.7-0.3,1.4,0,1.7,0.6c0.1,0.3,0.2,0.7,0,1l-5.3,14.6c-0.2,0.7-1,1-1.7,0.8L3.3,21
			c-0.7-0.2-1-1-0.8-1.7L7.8,4.8c0.3-0.7,1-1,1.7-0.8c0.3,0.1,0.6,0.4,0.7,0.7l2.5,5.5L18.2,7.6z"/>
		<path id="Path_48" class="st19" d="M12.8,10.2l-2.5-5.5C9.9,4,9.1,3.8,8.5,4.1C8.2,4.2,8,4.5,7.8,4.8L6,9.8c0.3-0.7,1-1,1.7-0.8
			C8,9.2,8.2,9.4,8.4,9.7l2.5,5.5l5.5-2.5c0.6-0.3,1.4,0,1.7,0.6c0.1,0.3,0.2,0.7,0,1l1.8-5c0.2-0.7-0.1-1.4-0.8-1.7
			c-0.3-0.1-0.7-0.1-1,0L12.8,10.2z"/>
		<path id="Path_49" class="st20" d="M20.7,26c-0.2,0.7-1,1-1.7,0.8L0.9,20.1c-0.7-0.2-1-1-0.8-1.7c0.2-0.7,1-1,1.7-0.8L20,24.4
			C20.6,24.6,21,25.4,20.7,26C20.7,26,20.7,26,20.7,26z"/>
		<path id="Path_50" class="st17" d="M72.3,9.2c5.1,2.6,7.1,8.9,4.4,14c-0.7,1.4-1.8,2.7-3.1,3.6c1,4.1-0.5,8.5-4,10.9
			c1,4.1-0.5,8.5-4,10.9c1,4.1-0.5,8.5-4,10.9c1.4,5.6-2,11.2-7.5,12.6c-1.6,0.4-3.2,0.4-4.8,0.1l1-2.7c0.1-0.4,0.5-0.7,0.9-0.8
			c4.1-1.1,6.6-5.3,5.5-9.5c-0.1-0.2-0.1-0.4-0.2-0.7c-0.2-0.6,0-1.3,0.6-1.6c3.3-1.9,4.7-5.8,3.4-9.4c-0.2-0.6,0-1.3,0.6-1.6
			c3.3-1.9,4.7-5.8,3.4-9.4c-0.2-0.6,0-1.2,0.6-1.6c3.3-1.9,4.7-5.8,3.4-9.4c-0.2-0.6,0-1.2,0.6-1.6c3.7-2.1,5-6.9,2.9-10.6
			c-0.1-0.2-0.2-0.4-0.4-0.6c-0.2-0.3-0.3-0.8-0.2-1.2L72.3,9.2z"/>
		<path id="Path_51" class="st21" d="M65.1,6.4l3.6,1.3c5.4,2,8.1,7.9,6.1,13.3c-0.7,1.9-2,3.6-3.7,4.8c1,4.1-0.5,8.5-4,10.9
			c1,4.1-0.5,8.5-4,10.9c1,4.1-0.5,8.5-4,10.9c1.4,5.6-2,11.2-7.5,12.6c-2,0.5-4.1,0.4-6.1-0.3L42,69.6c-0.7-0.2-1-1-0.8-1.7
			L63.4,7.2C63.7,6.5,64.4,6.2,65.1,6.4C65.1,6.4,65.1,6.4,65.1,6.4z"/>
		<path id="Path_52" class="st22" d="M65.1,6.4l3.6,1.3c5.4,2,8.1,8,6.1,13.3c-0.5,1.2-1.1,2.4-2,3.3c-0.1-4.2-2.8-7.9-6.8-9.4
			l-3.6-1.3c-0.7-0.2-1.4,0.1-1.7,0.8c0,0,0,0,0,0l2.7-7.3C63.7,6.5,64.4,6.2,65.1,6.4C65.1,6.4,65.1,6.4,65.1,6.4z"/>
		<path id="Path_53" class="st23" d="M60.9,20.5l3.9,8.3c0.3,0.6,0,1.4-0.6,1.7c0,0,0,0,0,0L57,33.8l-0.5-1.2
			c-0.3-0.6-1.1-0.9-1.7-0.6c-0.3,0.1-0.5,0.4-0.7,0.7l4.4-12.2c0.3-0.7,1-1,1.7-0.8C60.5,19.9,60.8,20.1,60.9,20.5z"/>
		<path id="Path_54" class="st23" d="M56.5,32.6l3.9,8.3c0.3,0.6,0,1.4-0.6,1.7l-8.3,3.9c-0.7,0.3-1.4,0-1.7-0.6
			c-0.1-0.3-0.2-0.7,0-1l4.4-12.2c0.3-0.7,1-1,1.7-0.8C56.1,32.1,56.4,32.3,56.5,32.6z"/>
		<path id="Path_55" class="st22" d="M55.2,44.7l-7.8,21.4c-0.7,1.9-2.3,3.4-4.2,4L42,69.6c-0.7-0.2-1-1-0.8-1.7l8.4-23.1
			c-0.2,0.7,0.1,1.4,0.8,1.7c0.3,0.1,0.7,0.1,1,0L55.2,44.7z"/>
		<path id="Path_56" class="st24" d="M60.9,20.5l1.8,3.8l-3,8.3L57,33.8l1.2,2.6l-3,8.3l-3.8,1.8c-0.7,0.3-1.4,0-1.7-0.6
			c-0.1-0.3-0.2-0.7,0-1l8.9-24.3c0.3-0.7,1-1,1.7-0.8C60.5,19.9,60.8,20.1,60.9,20.5z"/>
		<path id="Path_57" class="st22" d="M59.7,32.6l-1.4,3.9L57,33.8L59.7,32.6z"/>
		<path id="Path_58" class="st22" d="M65.1,6.4l2.4,0.9c0.4,1.3,0.4,2.8-0.1,4.1l-4.7,12.9l-1.8-3.8c-0.3-0.6-1.1-0.9-1.7-0.6
			c-0.3,0.1-0.5,0.4-0.7,0.7l4.9-13.4C63.7,6.5,64.4,6.2,65.1,6.4C65.1,6.4,65.1,6.4,65.1,6.4z"/>
		<path id="Path_59" class="st20" d="M32.9,60.8L52.4,7.3c1.2-3.4,4.9-5.1,8.3-3.9c0,0,0,0,0,0c3.4,1.2,5.1,4.9,3.9,8.3L45,65.2
			c-1.2,3.4-4.9,5.1-8.3,3.9c0,0,0,0,0,0C33.4,67.8,31.6,64.1,32.9,60.8z"/>
		<path id="Path_60" class="st25" d="M57.3,3.1C57.7,3.6,58,4,58.2,4.6C59,6.1,59,7.9,58.4,9.5L38.9,63c-0.8,2.2-2.7,3.8-5,4.2
			c-0.4-0.4-0.7-0.9-0.9-1.4c-0.7-1.6-0.8-3.3-0.2-4.9L52.4,7.3C53.2,5.1,55.1,3.5,57.3,3.1z"/>
		<path id="Path_61" class="st25" d="M60.7,3.4c1.6,0.6,2.9,1.8,3.6,3.3c0.7,1.6,0.8,3.3,0.2,4.9L61.9,19c0.6-1.6,0.5-3.4-0.2-4.9
			c-0.7-1.6-2-2.8-3.6-3.3c-3.4-1.2-7.1,0.5-8.3,3.9c0,0,0,0,0,0l2.7-7.3C53.6,3.9,57.3,2.2,60.7,3.4C60.7,3.4,60.7,3.4,60.7,3.4z"
			/>
		<path id="Path_62" class="st16" d="M55.8,1.6c0.7,0.2,1,1,0.8,1.7L33.5,66.5c-0.2,0.7-1,1-1.7,0.8c0,0,0,0,0,0
			c-14.1-5.1-21.3-20.7-16.2-34.8c0,0,0,0,0,0L21,17.9C26.1,3.8,41.7-3.5,55.8,1.6z"/>
		<path id="Path_63" class="st17" d="M55.8,1.6c0.7,0.2,1,1,0.8,1.7l-2.7,7.3c0.2-0.7-0.1-1.4-0.8-1.7c-14.1-5.1-29.7,2.1-34.8,16.2
			l2.7-7.3C26.1,3.8,41.7-3.5,55.8,1.6z"/>
		<g id="Group_50" transform="translate(21.085 11.39)">
			<circle id="Ellipse_3" class="st20" cx="1.3" cy="29" r="1.3"/>
			<circle id="Ellipse_4" class="st20" cx="5.7" cy="16.9" r="1.3"/>
			<circle id="Ellipse_5" class="st20" cx="10.2" cy="4.7" r="1.3"/>
			<circle id="Ellipse_6" class="st20" cx="10.8" cy="25.6" r="1.3"/>
			<circle id="Ellipse_7" class="st20" cx="6.4" cy="37.8" r="1.3"/>
			<circle id="Ellipse_8" class="st20" cx="15.2" cy="13.4" r="1.3"/>
			<circle id="Ellipse_9" class="st20" cx="19.7" cy="1.3" r="1.3"/>
		</g>
	</g>
	<g id="Group_54" transform="translate(235.427 167.56)">
		<path id="Path_64" class="st14" d="M102.4,21.5c-4.9,2-10.5-0.5-12.5-5.4c0,0,0,0,0,0c-2-4.9,0.5-10.5,5.4-12.5c0,0,0,0,0,0
			c4.9-2,10.5,0.5,12.5,5.4c0,0,0,0,0,0c0.9,2.4,0.9,5-0.1,7.4C106.6,18.7,104.7,20.6,102.4,21.5z"/>
		<g id="Group_53">
			<g>
				<defs>
					
						<rect id="SVGID_1_" x="11.7" y="17.7" transform="matrix(0.9294 -0.369 0.369 0.9294 -17.3651 29.2139)" width="112.1" height="84.6"/>
				</defs>
				<clipPath id="SVGID_2_">
					<use xlink:href="#SVGID_1_"  style="overflow:visible;"/>
				</clipPath>
				<g id="Group_52" class="st26">
					<path id="Path_65" class="st11" d="M102.4,21.5c-4.9,2-10.5-0.5-12.5-5.4c0,0,0,0,0,0c-1.1-2.8-0.9-6,0.7-8.5
						c0.1,1,0.3,1.9,0.6,2.8c2,4.9,7.5,7.3,12.5,5.4c0,0,0,0,0,0c1.9-0.8,3.6-2.2,4.7-3.9C108.7,16,106.3,19.9,102.4,21.5z"/>
					<path id="Path_66" class="st27" d="M123.2,83c1.1,0.3,2.3-0.3,2.6-1.5c0.1-0.4,0.1-0.9-0.1-1.3L99.7,14.9
						c-0.4-1.1-1.6-1.6-2.7-1.2c-0.4,0.2-0.8,0.5-1,0.9L69.8,57.7c-1.4,2.3-3.5,4-5.9,5L33.9,74.6c-6.3,2.5-13.4,0.3-17.2-5.3
						c-0.1-0.2-0.2-0.3-0.3-0.5c0,0-2.5-4.4-6.9-3.7l16.1,40.5c3.7-2.5,2.5-7.4,2.5-7.4c0-0.2-0.1-0.3-0.1-0.5
						c-1.1-6.7,2.6-13.2,8.9-15.7l29.9-11.9c2.5-1,5.2-1.1,7.8-0.4L123.2,83z"/>
					<path id="Path_67" class="st28" d="M123.2,83c1.1,0.3,2.3-0.3,2.6-1.5c0.1-0.4,0.1-0.9-0.1-1.3L99.7,14.9
						c-0.4-1.1-1.6-1.6-2.7-1.2c-0.4,0.2-0.8,0.5-1,0.9l-3.1,5.1l-0.5,1.8L70.3,57.8c-0.6,1.1-1.4,2.1-2.4,2.9
						c-0.2,0.2-1.2,0.2-1.4,0.4c-0.9,0.6-1.8,1.2-2.8,1.6L33.9,74.6c-6.3,2.5-13.4,0.3-17.2-5.3c-0.1-0.2-0.2-0.3-0.3-0.5
						c0,0-2.5-4.4-6.9-3.7l16.1,40.5c3.7-2.5,2.5-7.4,2.5-7.4c0-0.2-0.1-0.3-0.1-0.5c-1.1-6.7,2.6-13.2,8.9-15.7l29.9-11.9
						c1.1-0.4,2.2-0.7,3.4-0.8c0.2,0,0.6-0.3,0.8-0.3c1.3-0.1,2.6,0.1,3.9,0.4l39.7,11l0.8,0.5L123.2,83z"/>
					<path id="Path_68" class="st29" d="M66.7,70.1L36.8,81.9c-6.3,2.5-10,9-8.9,15.7c0,0.2,0.1,0.3,0.1,0.5c0,0,1.2,4.9-2.5,7.4
						l-1.9-4.8c1.8-1.2,1.6-3,1.2-5.1c-0.8-4,0-8.2,2.3-11.5c1.9-2.9,4.7-5.1,8-6.4l29.9-11.9c2.5-1,5.2-1.1,7.8-0.4l48.4,12.8
						c1.1,0.3,2.3-0.3,2.6-1.5c0.1-0.4,0.1-0.9-0.1-1.3l1.9,4.8c0.4,1.1-0.1,2.3-1.2,2.7c-0.4,0.2-0.9,0.2-1.3,0.1L74.5,69.6
						C71.9,68.9,69.2,69.1,66.7,70.1z"/>
				</g>
			</g>
		</g>
		<path id="Path_69" class="st14" d="M115.6,80.9L74.5,69.6c-1.5-0.4-3.1-0.5-4.7-0.4l-3.2-8.1l0.3-0.2c1.1-0.9,2.1-2,2.9-3.3
			l23.2-38c3.7,7.9,5,16.9,6.3,25.5c1.7,10.9,3.9,22.6,11.2,31C111.9,78,113.7,79.6,115.6,80.9L115.6,80.9z"/>
		<path id="Path_70" class="st11" d="M115.6,80.9L74.5,69.6c-0.9-0.2-1.8-0.4-2.7-0.4c-0.6,0-1.1,0-1.7,0l-0.3,0l-1.7-4.2
			c1.6-0.2,3.1-0.1,4.7,0.4l36.7,9.7c0.3,0.4,0.6,0.8,0.9,1.1C111.9,78,113.7,79.5,115.6,80.9L115.6,80.9z"/>
	</g>
	<g id="Group_56" transform="translate(-115.337 23.903)">
		<path id="Path_91" class="st30" d="M31.7,3.8C28.4,0.1,23-1.1,18.5,1.1c-2.9,1.4-5.1,3.9-6,7c-1,0-1.9,0.2-2.8,0.6
			c-2.7,1.3-4.2,4.2-3.5,7.2c-0.6,0.1-1.1,0.3-1.7,0.6C0.6,18.3-1.1,23,0.8,27c1.9,4,6.6,5.7,10.6,3.8l26-12.2
			c4-1.9,5.7-6.6,3.8-10.6C39.5,4.5,35.5,2.7,31.7,3.8L31.7,3.8z"/>
		<path id="Path_92" class="st31" d="M5.5,35.4L39,94c0.8,1.4,2.6,2,4.1,1.3l23.6-11.1c1.5-0.7,2.2-2.5,1.6-4L44.6,17L5.5,35.4z"/>
		<path id="Path_93" class="st32" d="M67.1,77L44.6,17L5.5,35.4L37.3,91L67.1,77z"/>
		<path id="Path_94" class="st33" d="M52.2,84l14.9-7L44.6,17l-19.5,9.2L52.2,84z"/>
		<path id="Path_95" class="st34" d="M44.6,17l-2.2-5.8c-0.6-1.6-2.5-2.5-4.1-1.9c-0.1,0-0.2,0.1-0.2,0.1l-34.2,16
			c-1.6,0.7-2.3,2.7-1.5,4.2c0,0.1,0.1,0.2,0.1,0.2l3,5.3L44.6,17z"/>
		<path id="Path_96" class="st35" d="M38.1,9.5l-17.1,8l4.1,8.7L44.6,17l-2.2-5.8c-0.6-1.6-2.5-2.5-4.1-1.9
			C38.2,9.5,38.2,9.5,38.1,9.5L38.1,9.5z"/>
		<path id="Path_97" class="st36" d="M49.1,92.5l17.6-8.2c1.5-0.7,2.2-2.5,1.6-4L67.1,77l-14.9,7C53.7,87.2,52.3,91,49.1,92.5
			C49.1,92.5,49.1,92.5,49.1,92.5L49.1,92.5z"/>
		<path id="Path_98" class="st33" d="M38.5,77.5c0.7,1.6,0.1,3.5-1.5,4.2c-1.6,0.7-3.5,0.1-4.2-1.5c0,0,0,0,0,0
			c-0.7-1.6-0.1-3.5,1.5-4.2c0,0,0,0,0,0C35.9,75.2,37.8,75.9,38.5,77.5L38.5,77.5z"/>
		<path id="Path_99" class="st33" d="M26.1,47.2c0.6,1.2,0,2.6-1.1,3.2c-1.2,0.6-2.6,0-3.2-1.1c0,0,0,0,0,0c-0.6-1.2,0-2.6,1.1-3.2
			c0,0,0,0,0,0C24.1,45.5,25.5,46,26.1,47.2C26.1,47.2,26.1,47.2,26.1,47.2z"/>
		<path id="Path_100" class="st33" d="M38.9,64.4c0.4,0.8,0,1.7-0.8,2.1c-0.8,0.4-1.7,0-2.1-0.8c-0.4-0.8,0-1.7,0.8-2.1
			C37.5,63.3,38.5,63.6,38.9,64.4z"/>
		<path id="Path_101" class="st32" d="M46.3,33.9c0.7,1.6,0.1,3.5-1.5,4.2c0,0,0,0,0,0c-1.6,0.7-3.5,0.1-4.2-1.5c0,0,0,0,0,0
			c-0.7-1.6-0.1-3.5,1.5-4.2c0,0,0,0,0,0C43.6,31.6,45.5,32.3,46.3,33.9C46.3,33.9,46.3,33.9,46.3,33.9z"/>
		<path id="Path_102" class="st32" d="M59.1,68.7c0.6,1.2,0,2.6-1.1,3.2c-1.2,0.6-2.6,0-3.2-1.2c-0.6-1.2,0-2.6,1.1-3.2
			C57.1,67,58.5,67.5,59.1,68.7z"/>
		<path id="Path_103" class="st32" d="M43.1,48.3c0.4,0.8,0,1.7-0.8,2.1c0,0,0,0,0,0c-0.8,0.4-1.7,0-2.1-0.8c0,0,0,0,0,0
			c-0.4-0.8,0-1.7,0.8-2.1C41.7,47.2,42.7,47.5,43.1,48.3L43.1,48.3z"/>
		<path id="Path_104" class="st30" d="M21,17.5l8.1,17.3c0.7,1.6,2.7,2.3,4.2,1.5c1.6-0.7,2.3-2.6,1.5-4.2l-2.7-5.8
			c-0.7-1.6-0.1-3.5,1.5-4.2c0,0,0,0,0,0c1.6-0.7,3.5-0.1,4.2,1.5c0.8,1.6,2.7,2.3,4.2,1.5c1.6-0.8,2.3-2.7,1.5-4.2L38.3,9.4
			c-0.8-1.6-2.7-2.3-4.2-1.5l-11.6,5.4C20.9,14,20.2,15.9,21,17.5L21,17.5z"/>
		<path id="Path_105" class="st37" d="M8.7,26.8c-1.5,0.7-2.2,2.5-1.5,4.1c0,0.1,0.1,0.1,0.1,0.2l34.1,59.7c0.4,0.8,1.4,1.1,2.2,0.7
			c0.8-0.4,1.2-1.4,0.8-2.3c0,0,0,0,0-0.1l-31.7-61C12,26.7,10.2,26.1,8.7,26.8L8.7,26.8z"/>
	</g>
</g>
<g>
	<path class="st38" d="M434.7,56.9l3,8.5l-13.9,29l-8.5,3l-3-8.5l13.9-29L434.7,56.9z M434.7,56.9"/>
	<path class="st39" d="M415.2,97.3l19.4-40.4l3,8.5l-13.9,29L415.2,97.3z M415.2,97.3"/>
	
		<rect x="404.4" y="93.8" transform="matrix(0.4331 -0.9014 0.9014 0.4331 144.3736 429.8302)" class="st39" width="19" height="12.7"/>
	
		<rect x="407.2" y="98.3" transform="matrix(0.4331 -0.9014 0.9014 0.4331 144.7563 433.1848)" class="st40" width="19" height="6.3"/>
	
		<rect x="426.5" y="47.7" transform="matrix(0.4331 -0.9014 0.9014 0.4331 198.4947 423.6571)" class="st39" width="19" height="12.7"/>
	
		<rect x="429.4" y="52.2" transform="matrix(0.4331 -0.9014 0.9014 0.4331 198.8773 427.0117)" class="st40" width="19" height="6.3"/>
	<path class="st41" d="M388.4,102l40,19.2l-5.5,11.4c-0.8,1.6-2.6,2.3-4.2,1.5l-34.3-16.5c-1.6-0.8-2.3-2.6-1.5-4.2L388.4,102z
		 M388.4,102"/>
	<path class="st42" d="M401.5,125.9l6.9-14.3l20,9.6l-5.5,11.4c-0.8,1.6-2.6,2.3-4.2,1.5L401.5,125.9z M401.5,125.9"/>
	<path class="st43" d="M385.4,93.5l-2.7,5.7c-0.8,1.6-0.1,3.5,1.5,4.2l45.7,22c1.6,0.8,3.5,0.1,4.2-1.5l2.7-5.7
		c0.8-1.6,0.1-3.5-1.5-4.2l-45.7-22C388,91.3,386.2,91.9,385.4,93.5L385.4,93.5z M385.4,93.5"/>
	<path class="st41" d="M407,114.4l5.5-11.4l22.9,11c1.6,0.8,2.3,2.6,1.5,4.2l-2.7,5.7c-0.8,1.6-2.6,2.3-4.2,1.5L407,114.4z
		 M407,114.4"/>
	<path class="st41" d="M431.2,20.1l34.3,16.5c1.6,0.8,2.3,2.6,1.5,4.2l-5.5,11.4l-40-19.2l5.5-11.4C427.8,20,429.6,19.3,431.2,20.1
		L431.2,20.1z M431.2,20.1"/>
	<path class="st42" d="M448.4,28.3l17.1,8.2c1.6,0.8,2.3,2.6,1.5,4.2l-5.5,11.4l-20-9.6L448.4,28.3z M448.4,28.3"/>
	<path class="st43" d="M415.8,30.2l-2.7,5.7c-0.8,1.6-0.1,3.5,1.5,4.2l45.7,22c1.6,0.8,3.5,0.1,4.2-1.5l2.7-5.7
		c0.8-1.6,0.1-3.5-1.5-4.2l-45.7-22C418.4,28,416.6,28.6,415.8,30.2L415.8,30.2z M415.8,30.2"/>
	<path class="st41" d="M442.9,39.7l22.9,11c1.6,0.8,2.3,2.6,1.5,4.2l-2.7,5.7c-0.8,1.6-2.6,2.3-4.2,1.5l-22.9-11L442.9,39.7z
		 M442.9,39.7"/>
</g>
</svg>
