<?xml version="1.0" encoding="utf-8"?>
<!-- Generator: Adobe Illustrator 25.2.0, SVG Export Plug-In . SVG Version: 6.00 Build 0)  -->
<svg version="1.1" id="Warstwa_1" xmlns="http://www.w3.org/2000/svg" xmlns:xlink="http://www.w3.org/1999/xlink" x="0px" y="0px"
	 viewBox="0 0 50 50" style="enable-background:new 0 0 50 50;" xml:space="preserve">
<style type="text/css">
	.st0{fill:#FF72FF;}
	.st1{fill:#4E5A61;}
	.st2{fill:#607882;}
	.st3{clip-path:url(#SVGID_2_);fill:#607882;}
	.st4{clip-path:url(#SVGID_2_);fill:#4E5A61;}
	.st5{clip-path:url(#SVGID_2_);fill:#BFC5EB;}
	.st6{clip-path:url(#SVGID_2_);fill:#8A94DB;}
	.st7{fill:#F5FCFF;}
	.st8{fill:#DCE7EF;}
</style>
<g>
	<circle class="st0" cx="25" cy="25" r="25"/>
</g>
<g>
	<path class="st1" d="M11,8.8c0.5,0.9,1.6,2.7,2.8,3.8h1.3v-1.3C14,10.2,12.2,9,11.3,8.5C11.1,8.4,10.9,8.6,11,8.8L11,8.8z M11,8.8"
		/>
	<path class="st2" d="M15.1,11.3l-1.3,1.3c0.6,0.6,7.1,7.1,7.1,7.1h1.3v-1.3L15.1,11.3z M15.1,11.3"/>
	<path class="st1" d="M20.9,19.8l1.3-1.3l1.3,1.3l-1.3,1.3L20.9,19.8z M20.9,19.8"/>
	<g>
		<defs>
			<rect id="SVGID_1_" x="10.8" y="8.3" width="30.8" height="30.8"/>
		</defs>
		<clipPath id="SVGID_2_">
			<use xlink:href="#SVGID_1_"  style="overflow:visible;"/>
		</clipPath>
		<path class="st3" d="M40.9,37.1c-2.9-3-7.2-8.1-10.7-12.4l-1.4-0.7L28,22.1c-1.4-1.7-2.6-3.1-3.5-4c-0.2-0.2-0.5-0.2-0.7,0
			l-3.3,3.3c-0.2,0.2-0.2,0.5,0,0.7c0.9,0.8,2.3,2,4,3.5l1.6,0.8l1.3,1.6c4.2,3.5,9.1,7.6,12,10.4c0.5,0.3,1.1,0.4,1.4,0.1
			C41.3,38.2,41.3,37.6,40.9,37.1L40.9,37.1z M40.9,37.1"/>
		<path class="st4" d="M30.1,24.6L27.5,28c-1-0.9-2-1.7-3-2.5l3.4-3.4C28.7,22.9,29.4,23.8,30.1,24.6L30.1,24.6z M41.3,37.5
			c-0.1-0.1-0.3-0.3-0.4-0.5c0.2,0.4,0.1,0.8-0.2,1.1c-0.3,0.3-0.8,0.4-1.1,0.3c0.2,0.1,0.3,0.3,0.4,0.4c0.4,0.4,1,0.4,1.3,0
			C41.7,38.5,41.7,37.9,41.3,37.5L41.3,37.5z M41.3,37.5"/>
		<path class="st5" d="M22.7,37.8c1.6-1.6,3.8-10.6,3.8-10.6l-4.4-3.8c0,0-8.7,1.8-10.3,3.4c-1.1,1.1-1.3,3.4-0.5,5.7l0.3,0.9
			c0.4,0.9,1,1.8,1.7,2.6C16.4,39.1,21.2,39.4,22.7,37.8L22.7,37.8z M22.7,37.8"/>
		<path class="st6" d="M15.7,31.1l-4.1,2.4c-0.1-0.3-0.2-0.6-0.3-0.9l4-2.3c0.2-0.1,0.5-0.1,0.6,0.2C16,30.7,15.9,30.9,15.7,31.1
			L15.7,31.1z M25.9,27.1c0,0-1.8,8.7-3.4,10.3c-0.8,0.8-2.3,1.1-4,0.9l1.2-1.8c0.1-0.2,0.1-0.5-0.1-0.6c-0.2-0.1-0.5-0.1-0.6,0.1
			l-1.4,2.1c-0.6-0.1-1.2-0.4-1.8-0.7l2.8-3.3c0.2-0.2,0.1-0.5-0.1-0.7c-0.2-0.2-0.5-0.1-0.7,0.1l-2.9,3.5c-0.5-0.3-1-0.7-1.5-1.1
			c0.1,0.1,0.2,0.2,0.3,0.3c3.2,3.2,7.9,3.4,9.5,1.8c1.6-1.6,3.4-10.3,3.4-10.3v-0.6L25.9,27.1z M25.9,27.1"/>
		<path class="st5" d="M41.2,8.3c-0.1,0-0.3,0-0.4,0.1c-2.9,1.1-12.3,10.1-12.3,10.1v2.9l2.6-0.4C31.1,21.1,42.3,9.6,41.2,8.3
			L41.2,8.3z M41.2,8.3"/>
		<path class="st6" d="M41.5,8.4c-0.1-0.1-0.2-0.1-0.4-0.1c-1.3,3.1-10.5,12.5-10.5,12.5l-2.3,0.7h2.9c0,0,9-9.3,10.1-12.3
			C41.6,8.8,41.7,8.5,41.5,8.4L41.5,8.4z M41.5,8.4"/>
	</g>
	<path class="st7" d="M30.7,20.8l-2.3-2.3l-6.3,4.8l3.8,3.8l2.9-3.2L30.7,20.8z M30.7,20.8"/>
	<path class="st8" d="M30.7,20.8l-4.8,6.3l0.7,0.7l4.8-6.3L30.7,20.8z M30.7,20.8"/>
</g>
</svg>
