<?xml version="1.0" encoding="utf-8"?>
<!-- Generator: Adobe Illustrator 25.2.0, SVG Export Plug-In . SVG Version: 6.00 Build 0)  -->
<svg version="1.1" id="Warstwa_1" xmlns="http://www.w3.org/2000/svg" xmlns:xlink="http://www.w3.org/1999/xlink" x="0px" y="0px"
	 viewBox="0 0 40 40" style="enable-background:new 0 0 40 40;" xml:space="preserve">
<style type="text/css">
	.st0{fill:#FF3374;}
	.st1{fill:#FFFFFF;}
</style>
<circle class="st0" cx="20" cy="20" r="20"/>
<g>
	<path class="st1" d="M20,38c-9.9,0-18-8.1-18-18S10.1,2,20,2s18,8.1,18,18S29.9,38,20,38z M20,4C11.2,4,4,11.2,4,20s7.2,16,16,16
		s16-7.2,16-16S28.8,4,20,4z"/>
</g>
<g>
	<path class="st1" d="M17.7,22.4v7.7h-4.2v-20h5.8c2.7,0,4.7,0.5,6,1.5c1.3,1,2,2.5,2,4.5c0,1.2-0.3,2.2-1,3.1s-1.6,1.6-2.7,2.2
		c3,4.5,5,7.4,5.9,8.7h-4.7L20,22.4H17.7z M17.7,19h1.4c1.3,0,2.3-0.2,3-0.7c0.6-0.4,1-1.1,1-2.1c0-0.9-0.3-1.6-1-2s-1.7-0.6-3-0.6
		h-1.3V19H17.7z"/>
</g>
</svg>
