<?xml version="1.0" encoding="utf-8"?>
<!-- Generator: Adobe Illustrator 25.2.0, SVG Export Plug-In . SVG Version: 6.00 Build 0)  -->
<svg version="1.1" id="Warstwa_1" xmlns="http://www.w3.org/2000/svg" xmlns:xlink="http://www.w3.org/1999/xlink" x="0px" y="0px"
	 viewBox="0 0 50 50" style="enable-background:new 0 0 50 50;" xml:space="preserve">
<style type="text/css">
	.st0{fill:#A645DA;}
	.st1{fill:#FFFFFF;}
</style>
<g>
	<circle class="st0" cx="25" cy="25" r="25"/>
</g>
<g>
	<path class="st1" d="M21.5,27.4V38h-5.8V10.5h8c3.7,0,6.5,0.7,8.3,2c1.8,1.4,2.7,3.4,2.7,6.2c0,1.6-0.4,3.1-1.3,4.3s-2.1,2.2-3.8,3
		c4.1,6.2,6.8,10.2,8.1,12h-6.5l-6.6-10.5H21.5z M21.5,22.7h1.9c1.8,0,3.2-0.3,4.1-0.9c0.9-0.6,1.3-1.6,1.3-2.9
		c0-1.3-0.4-2.2-1.3-2.8c-0.9-0.6-2.3-0.8-4.2-0.8h-1.8V22.7z"/>
</g>
</svg>
