<?xml version="1.0" encoding="utf-8"?>
<!-- Generator: Adobe Illustrator 25.2.0, SVG Export Plug-In . SVG Version: 6.00 Build 0)  -->
<svg version="1.1" id="Warstwa_1" xmlns="http://www.w3.org/2000/svg" xmlns:xlink="http://www.w3.org/1999/xlink" x="0px" y="0px"
	 viewBox="0 0 40 40" style="enable-background:new 0 0 40 40;" xml:space="preserve">
<style type="text/css">
	.st0{fill:#BE33FF;}
	.st1{fill:#FFFFFF;}
</style>
<circle class="st0" cx="20" cy="20" r="20"/>
<g>
	<path class="st1" d="M20,38c-9.9,0-18-8.1-18-18c0-9.9,8.1-18,18-18c9.9,0,18,8.1,18,18C38,29.9,29.9,38,20,38z M20,4
		C11.2,4,4,11.2,4,20s7.2,16,16,16s16-7.2,16-16S28.8,4,20,4z"/>
</g>
<g>
	<path class="st1" d="M22.7,14.5c1.8,0,3.2,0.7,4.2,2.1s1.5,3.3,1.5,5.8c0,2.5-0.5,4.5-1.6,5.9s-2.5,2.1-4.3,2.1
		c-1.8,0-3.2-0.7-4.2-2H18l-0.7,1.7h-3.2V8.8h4.2v4.9c0,0.6-0.1,1.6-0.2,3h0.2C19.3,15.3,20.8,14.5,22.7,14.5z M21.3,17.9
		c-1,0-1.8,0.3-2.3,1c-0.5,0.6-0.7,1.7-0.7,3.1v0.5c0,1.6,0.2,2.8,0.7,3.5c0.5,0.7,1.3,1.1,2.3,1.1c0.9,0,1.5-0.4,2-1.2
		s0.8-1.9,0.8-3.4s-0.3-2.6-0.8-3.4C22.9,18.2,22.2,17.9,21.3,17.9z"/>
</g>
</svg>
