<?xml version="1.0" encoding="utf-8"?>
<!-- Generator: Adobe Illustrator 25.2.0, SVG Export Plug-In . SVG Version: 6.00 Build 0)  -->
<svg version="1.1" id="Warstwa_1" xmlns="http://www.w3.org/2000/svg" xmlns:xlink="http://www.w3.org/1999/xlink" x="0px" y="0px"
	 viewBox="0 0 40 40" style="enable-background:new 0 0 40 40;" xml:space="preserve">
<style type="text/css">
	.st0{fill:#0001FC;}
	.st1{fill:#FFFFFF;}
</style>
<circle class="st0" cx="20" cy="20" r="20"/>
<g>
	<path class="st1" d="M20,38c-9.9,0-18-8.1-18-18c0-9.9,8.1-18,18-18c9.9,0,18,8.1,18,18C38,29.9,29.9,38,20,38z M20,4
		C11.2,4,4,11.2,4,20s7.2,16,16,16s16-7.2,16-16S28.8,4,20,4z"/>
</g>
<g>
	<path class="st1" d="M13.5,10.1h6.2c2.8,0,4.9,0.4,6.2,1.2s1.9,2.1,1.9,3.8c0,1.2-0.3,2.2-0.8,2.9s-1.3,1.2-2.2,1.4v0.1
		c1.3,0.3,2.2,0.8,2.7,1.6c0.6,0.8,0.8,1.8,0.8,3.1c0,1.8-0.7,3.2-2,4.3s-3.1,1.5-5.4,1.5h-7.5V10.1z M17.7,18h2.5
		c1.1,0,2-0.2,2.5-0.5s0.8-0.9,0.8-1.8c0-0.8-0.3-1.3-0.8-1.6c-0.6-0.3-1.4-0.5-2.7-0.5h-2.2V18z M17.7,21.4v5.2h2.8
		c1.2,0,2-0.2,2.6-0.7c0.6-0.4,0.8-1.1,0.8-2.1c0-1.7-1.2-2.5-3.6-2.5H17.7z"/>
</g>
</svg>
