<?xml version="1.0" encoding="utf-8"?>
<!-- Generator: Adobe Illustrator 25.2.0, SVG Export Plug-In . SVG Version: 6.00 Build 0)  -->
<svg version="1.1" id="Warstwa_1" xmlns="http://www.w3.org/2000/svg" xmlns:xlink="http://www.w3.org/1999/xlink" x="0px" y="0px"
	 viewBox="0 0 50 50" style="enable-background:new 0 0 50 50;" xml:space="preserve">
<style type="text/css">
	.st0{fill:#FFD422;}
	.st1{fill:#884D00;}
	.st2{fill:#AA6100;}
	.st3{fill:#FFA733;}
	.st4{fill:#FFB655;}
	.st5{fill:#EEBF00;}
	.st6{fill:#6DC82A;}
	.st7{fill:#7ED63E;}
	.st8{fill:#FF3501;}
	.st9{fill:#FF5023;}
	.st10{fill:#FFF5CC;}
</style>
<g>
	<circle class="st0" cx="25" cy="25" r="25"/>
</g>
<g>
	<path class="st1" d="M39.3,27.9c0,0.6-0.2,1.1-0.6,1.5c-0.4,0.4-0.9,0.6-1.5,0.6H12.8c-1.2,0-2.1-0.9-2.1-2.1
		c0-0.3,0.1-0.6,0.2-0.9c0.1-0.2,0.3-0.4,0.4-0.6c0.4-0.4,0.9-0.6,1.5-0.6h24.4c0.9,0,1.6,0.5,1.9,1.2
		C39.2,27.3,39.3,27.6,39.3,27.9z"/>
	<path class="st2" d="M39.1,27c-0.1,0.2-0.3,0.4-0.4,0.6c-0.4,0.4-0.9,0.6-1.5,0.6H12.8c-0.9,0-1.6-0.5-1.9-1.2
		c0.1-0.2,0.3-0.4,0.4-0.6c0.4-0.4,0.9-0.6,1.5-0.6h24.4C38,25.8,38.7,26.3,39.1,27z"/>
	<path class="st3" d="M41.1,31.7c0,2.7-1.3,4.7-3.3,6.1c-2,1.3-4.8,2-7.9,2h-9.8c-6.2,0-11.2-2.6-11.2-8.1c0-0.3,0.1-0.6,0.2-0.8
		c0.1-0.2,0.3-0.4,0.5-0.6c0.4-0.4,1-0.6,1.6-0.6h27.6c0.9,0,1.7,0.5,2.1,1.2C41,31.1,41.1,31.4,41.1,31.7z"/>
	<path class="st4" d="M40.9,30.8c-0.4,1.8-1.5,3.2-3.1,4.2c-2,1.3-4.8,2-7.9,2h-9.8c-5.5,0-10-2-11-6.2c0.1-0.2,0.3-0.4,0.5-0.6
		c0.4-0.4,1-0.6,1.6-0.6h27.6C39.7,29.7,40.5,30.1,40.9,30.8z"/>
	<path class="st5" d="M33.9,24.9l-5.4,5.4c-0.1,0.1-0.3,0.3-0.4,0.4c-1.2,0.8-2.7,0.7-3.8-0.4l-5.4-5.4H33.9L33.9,24.9z"/>
	<path class="st0" d="M33.9,24.9l-5.4,5.4c-0.1,0.1-0.3,0.3-0.4,0.4c-0.4-0.1-0.8-0.4-1.1-0.7l-5.1-5.1H33.9L33.9,24.9z"/>
	<path class="st6" d="M40.5,25.7c0,0.3,0,0.6-0.1,0.9c-0.4,1.1-1.5,1.5-2.3,0.9l-1-0.7c-0.7-0.5-1.6-0.3-2.1,0.5l0,0.1
		c-0.5,0.8-1.3,1-2,0.5l-2.2-1.5c-0.5-0.3-1.1-0.3-1.6,0.1l-1.8,1.5c-0.5,0.4-1.2,0.4-1.7,0l-2-1.5c-0.5-0.4-1.2-0.4-1.7,0L19.9,28
		c-0.5,0.4-1.1,0.4-1.6,0.1l-2.4-1.7c-0.5-0.3-1-0.3-1.5,0L12,27.8c-1.5,0.2-2.2-0.9-2.2-0.9c-0.4-0.6-0.4-1.4-0.2-2
		c0.2-0.7,0.8-1.3,1.5-1.3h27.7c0.7,0,1.3,0.6,1.5,1.3C40.4,25.1,40.5,25.4,40.5,25.7z"/>
	<path class="st7" d="M40.3,24.9C40.3,24.9,40.3,25,40.3,24.9c-0.4,1.2-1.5,1.6-2.3,1l-1-0.7c-0.7-0.5-1.6-0.3-2.1,0.5l0,0.1
		c-0.5,0.8-1.3,1-2,0.5l-2.2-1.5c-0.5-0.3-1.1-0.3-1.6,0.1l-1.8,1.5c-0.5,0.4-1.2,0.4-1.7,0l-2-1.5c-0.5-0.4-1.2-0.4-1.7,0l-1.9,1.5
		c-0.5,0.4-1.1,0.4-1.6,0.1l-2.4-1.7c-0.5-0.3-1-0.3-1.5,0L12,26.3c-1.5,0.2-2.2-0.9-2.2-0.9c-0.1-0.1-0.2-0.3-0.2-0.5
		c0.2-0.7,0.8-1.3,1.5-1.3h27.7C39.5,23.6,40.1,24.1,40.3,24.9z"/>
	<path class="st8" d="M39.9,22.2c0,0.2,0,0.4-0.1,0.6c-0.3,0.9-1.1,1.5-2,1.5c-3.8,0-13.9-0.1-15.4,0c0,0-0.1,0-0.1,0
		c-1.9,0.1-2.4,0.4-2.4,1.4v3.7c0,0.2-0.1,0.4-0.2,0.5c-0.1,0.1-0.3,0.2-0.5,0.2c-0.4,0-0.7,0.3-0.7,0.7v1.6c0,0.2,0,0.3-0.1,0.5
		c-0.2,0.9-1,1.6-2,1.6h-0.1c-1.1,0-2-0.9-2-2l0-3c0-0.2,0.1-0.4,0.2-0.6c0.1-0.1,0.4-0.2,0.6-0.2c0.5,0,0.8-0.4,0.8-0.8v-2.2
		c0-0.8-0.6-1.4-1.4-1.4h-2.6c-1.2,0-2.1-0.9-2.2-2.1c0-1.2,0.9-2.2,2.1-2.2h25.6C38.9,20.2,39.9,21.1,39.9,22.2z"/>
	<path class="st9" d="M39.9,22.2c0,0.2,0,0.4-0.1,0.6c-4,0-13.6-0.1-15.1,0c-2,0.1-2.5,0.4-2.5,1.4v0.1c-1.9,0.1-2.4,0.4-2.4,1.4
		v3.7c0,0.2-0.1,0.4-0.2,0.5c-0.1,0.1-0.3,0.2-0.5,0.2c-0.4,0-0.7,0.3-0.7,0.7v1.6c0,0.2,0,0.3-0.1,0.5c-0.9-0.2-1.7-1-1.7-2l0-3
		c0-0.2,0.1-0.4,0.2-0.6c0.1-0.1,0.4-0.2,0.6-0.2c0.5,0,0.8-0.4,0.8-0.8v-2.2c0-0.8-0.6-1.4-1.4-1.4h-2.6c-1.2,0-2.1-0.9-2.2-2.1
		c0-0.2,0-0.4,0.1-0.6h25.3C38.9,20.2,39.9,21.1,39.9,22.2z"/>
	<path class="st5" d="M27.8,18l-4.7,4.7c-0.5,0.5-1,0.8-1.6,1c-1.4,0.5-3.1,0.2-4.3-1L12.6,18H27.8z"/>
	<path class="st0" d="M27.8,18l-4.7,4.7c-0.5,0.5-1,0.8-1.6,1c-0.6-0.2-1.1-0.5-1.6-1L15.3,18H27.8z"/>
	<path class="st3" d="M41.1,18.7c0,0,0,0.1,0,0.1c0,0.4-0.2,0.8-0.5,1.1c-0.3,0.3-0.7,0.5-1.2,0.5H10.6c-1,0-1.7-0.8-1.7-1.7
		c0-2.1,1-3.7,2.4-4.8c1.2-1,2.7-1.7,4.3-2.2c4.4-1.4,9.4-1.4,9.4-1.4S41.1,10.2,41.1,18.7z"/>
	<path class="st4" d="M41.1,18.7c0,0,0,0.1,0,0.1H14.1c-1,0-1.7-0.8-1.7-1.7c0-2.1,1-3.7,2.4-4.8c0.2-0.2,0.5-0.4,0.7-0.5
		c4.4-1.4,9.4-1.4,9.4-1.4S41.1,10.2,41.1,18.7z"/>
	<g>
		<path class="st10" d="M33.6,13.3c0.3,0.3,0.3,0.8,0,1c-0.3,0.3-0.8,0.3-1,0c-0.3-0.3-0.8-1.3-0.5-1.6S33.3,13,33.6,13.3z"/>
		<path class="st10" d="M29.7,16.9c0.1,0.4,0,0.8-0.4,1c-0.4,0.1-0.8,0-1-0.4c-0.1-0.4-0.2-1.5,0.1-1.7
			C28.9,15.6,29.6,16.5,29.7,16.9z"/>
		<path class="st10" d="M25.7,13.9c0,0.4-0.3,0.7-0.7,0.7c-0.4,0-0.7-0.3-0.7-0.7c0-0.4,0.3-1.5,0.7-1.5
			C25.4,12.4,25.7,13.5,25.7,13.9z"/>
		<path class="st10" d="M21.7,17.4c-0.1,0.4-0.5,0.6-0.9,0.5c-0.4-0.1-0.6-0.5-0.5-0.9c0.1-0.4,0.7-1.4,1.1-1.3
			C21.7,15.9,21.8,17,21.7,17.4z"/>
		<path class="st10" d="M17.6,14.2c-0.2,0.4-0.6,0.5-1,0.3c-0.4-0.2-0.5-0.6-0.3-1c0.2-0.4,1-1.2,1.3-1C18,12.7,17.8,13.8,17.6,14.2
			z"/>
	</g>
</g>
</svg>
