<?xml version="1.0" encoding="utf-8"?>
<!-- Generator: Adobe Illustrator 25.2.0, SVG Export Plug-In . SVG Version: 6.00 Build 0)  -->
<svg version="1.1" id="Warstwa_1" xmlns="http://www.w3.org/2000/svg" xmlns:xlink="http://www.w3.org/1999/xlink" x="0px" y="0px"
	 viewBox="0 0 50 50" style="enable-background:new 0 0 50 50;" xml:space="preserve">
<style type="text/css">
	.st0{fill:#00C5FF;}
	.st1{fill:#FFFFFF;}
	.st2{fill:#E9EDF5;}
	.st3{fill:#636978;}
	.st4{fill:#555A66;}
	.st5{fill:#414952;}
	.st6{fill:#333940;}
</style>
<g>
	<circle class="st0" cx="25" cy="25" r="25"/>
</g>
<g>
	<g>
		<path class="st1" d="M6.3,22.4h37.3v5.1H6.3V22.4z"/>
	</g>
	<g>
		<path class="st2" d="M6.3,25h37.3v2.5H6.3V25z"/>
	</g>
	<g>
		<g>
			<path class="st3" d="M11.1,31.9c-1.5,0-2.7-1.2-2.7-2.7v-8.4c0-1.5,1.2-2.7,2.7-2.7s2.7,1.2,2.7,2.7v8.4
				C13.8,30.7,12.6,31.9,11.1,31.9z"/>
		</g>
		<g>
			<path class="st4" d="M16,34.6c-1.5,0-2.7-1.2-2.7-2.7V18.1c0-1.5,1.2-2.7,2.7-2.7s2.7,1.2,2.7,2.7v13.9
				C18.7,33.4,17.5,34.6,16,34.6z"/>
		</g>
		<g>
			<path class="st3" d="M38.9,18.1c1.5,0,2.7,1.2,2.7,2.7v8.4c0,1.5-1.2,2.7-2.7,2.7c-1.5,0-2.7-1.2-2.7-2.7v-8.4
				C36.2,19.3,37.4,18.1,38.9,18.1z"/>
		</g>
		<g>
			<path class="st4" d="M34,15.4c1.5,0,2.7,1.2,2.7,2.7v13.9c0,1.5-1.2,2.7-2.7,2.7c-1.5,0-2.7-1.2-2.7-2.7V18.1
				C31.3,16.6,32.5,15.4,34,15.4L34,15.4z"/>
		</g>
	</g>
	<g>
		<g>
			<path class="st5" d="M8.4,25v4.2c0,1.5,1.2,2.7,2.7,2.7s2.7-1.2,2.7-2.7V25H8.4z"/>
		</g>
		<g>
			<path class="st6" d="M13.3,25v6.9c0,1.5,1.2,2.7,2.7,2.7s2.7-1.2,2.7-2.7V25H13.3z"/>
		</g>
		<g>
			<path class="st5" d="M36.2,25v4.2c0,1.5,1.2,2.7,2.7,2.7c1.5,0,2.7-1.2,2.7-2.7V25H36.2z"/>
		</g>
		<g>
			<path class="st6" d="M31.3,25v6.9c0,1.5,1.2,2.7,2.7,2.7c1.5,0,2.7-1.2,2.7-2.7V25H31.3z"/>
		</g>
	</g>
</g>
</svg>
