<?xml version="1.0" encoding="utf-8"?>
<!-- Generator: Adobe Illustrator 25.2.0, SVG Export Plug-In . SVG Version: 6.00 Build 0)  -->
<svg version="1.1" id="Warstwa_1" xmlns="http://www.w3.org/2000/svg" xmlns:xlink="http://www.w3.org/1999/xlink" x="0px" y="0px"
	 viewBox="0 0 50 50" style="enable-background:new 0 0 50 50;" xml:space="preserve">
<style type="text/css">
	.st0{fill:#FF6060;}
	.st1{fill:#E94444;}
	.st2{fill:#D83131;}
	.st3{fill:#DFF6FD;}
	.st4{fill:#C8EFFE;}
	.st5{fill:#99E6FC;}
</style>
<g>
	<circle class="st0" cx="25" cy="25" r="25"/>
</g>
<g>
	<g>
		<circle class="st1" cx="14.6" cy="12.2" r="2.6"/>
	</g>
	<g>
		<path class="st2" d="M17.2,12.2c0,1.5-1.2,2.6-2.6,2.6c-0.9,0-1.6-0.4-2.1-1.1c0.2,0.1,0.5,0.1,0.8,0.1c1.5,0,2.6-1.2,2.6-2.6
			c0-0.6-0.2-1.2-0.5-1.6C16.5,10,17.2,11,17.2,12.2z"/>
	</g>
	<g>
		<path class="st3" d="M35.1,13.1c0.3-0.4,0-0.9-0.5-0.9H25h-9.7c-0.5,0-0.7,0.5-0.5,0.9l8.4,11.1c0.4,0.6,0.7,1.3,0.7,2v8.9
			c0,1.9-1.3,3.5-3.1,3.9c-0.1,0-0.1,0-0.2,0c0,0-1.4,0.2-1.6,1.4h6h6c-0.3-1.2-1.6-1.4-1.6-1.4c0,0-0.1,0-0.1,0
			c-1.8-0.4-3.1-2-3.1-3.9v-8.9c0-0.7,0.2-1.4,0.7-2L35.1,13.1z"/>
		<path class="st4" d="M35.1,13.1c0.3-0.4,0-0.9-0.5-0.9H25h-9.7c-0.5,0-0.7,0.5-0.5,0.9l1,1.3l0.4,0.3l7.1,9.4
			c0.2,0.3,0.4,0.6,0.5,0.9c0,0.1-0.1,0.3,0,0.4c0.1,0.3,0.1,0.6,0.1,0.9v8.9c0,1.9-1.3,3.5-3.1,3.9c-0.1,0-0.1,0-0.2,0
			c0,0-1.4,0.2-1.6,1.4h6h6c-0.3-1.2-1.6-1.4-1.6-1.4c0,0-0.1,0-0.1,0c-1.8-0.4-3.1-2-3.1-3.9v-8.9c0-0.3,0-0.6,0.1-1
			c0-0.1,0-0.2,0-0.2c0.1-0.3,0.3-0.7,0.5-1l6.8-9l0.2-0.2L35.1,13.1z"/>
		<path class="st5" d="M26.1,26.3v8.9c0,1.9,1.3,3.5,3.1,3.9c0,0,0.1,0,0.1,0c0,0,1.4,0.2,1.6,1.4h-1.4c-0.1-0.6-0.6-0.7-1.2-0.8
			c-1.1-0.2-2-0.8-2.7-1.8c-0.5-0.8-0.8-1.7-0.8-2.7c0,0,0-8.9,0-8.9c0-0.7,0.2-1.4,0.7-2l8.2-11.1c0.3-0.4,0-0.9-0.5-0.9h1.4
			c0.5,0,0.7,0.5,0.5,0.9l-8.4,11.1C26.3,24.8,26.1,25.5,26.1,26.3z"/>
		<path class="st1" d="M33.8,14.8l-7.1,9.4c-0.3,0.3-0.5,0.7-0.6,1.2l-2.4,0l0-0.1c-0.1-0.4-0.3-0.7-0.5-1.1l-7.4-9.8
			c2.4-0.1,4.8,0.4,7.2,1c3,0.7,6.2,1.3,9.1,0.3C32.7,15.5,33.3,15.2,33.8,14.8z"/>
		<path class="st2" d="M33.8,14.8c0,0-7.1,9.4-7.1,9.4c-0.1,0.2-0.3,0.4-0.4,0.6c-0.1,0.1-0.1,0.3-0.2,0.4c0,0,0,0.1,0,0.1h-1.2
			c0.1-0.4,0.3-0.8,0.6-1.2l6.2-8.4c0.1,0,0.3-0.1,0.4-0.1C32.7,15.5,33.3,15.2,33.8,14.8L33.8,14.8z"/>
	</g>
</g>
</svg>
