<?xml version="1.0" encoding="utf-8"?>
<!-- Generator: Adobe Illustrator 25.2.0, SVG Export Plug-In . SVG Version: 6.00 Build 0)  -->
<svg version="1.1" xmlns="http://www.w3.org/2000/svg" xmlns:xlink="http://www.w3.org/1999/xlink" x="0px" y="0px"
	 viewBox="0 0 500 500" style="enable-background:new 0 0 500 500;" xml:space="preserve">
<style type="text/css">
	.st0{fill:#EBEBEB;}
	.st1{fill:#E0E0E0;}
	.st2{fill:#F5F5F5;}
	.st3{fill:#E6E6E6;}
	.st4{fill:#F0F0F0;}
	.st5{fill:#FFFFFF;}
	.st6{fill:#FAFAFA;}
	.st7{opacity:0.6;fill:#E0E0E0;}
	.st8{display:none;}
	.st9{display:inline;}
	.st10{fill:#407BFF;}
	.st11{opacity:0.9;fill:#FFFFFF;}
	.st12{opacity:0.38;}
	.st13{fill:#0001FC;}
	.st14{opacity:0.8;fill:#FFFFFF;}
	.st15{opacity:0.3;fill:#FFFFFF;}
	.st16{opacity:0.3;}
	.st17{fill:#263238;}
</style>
<g id="Background_Complete">
	<g>
		<rect y="382.9" class="st0" width="500" height="0.3"/>
		<rect x="428.2" y="399" class="st0" width="21.7" height="0.3"/>
		<rect x="310.6" y="393.8" class="st0" width="34.1" height="0.3"/>
		<rect x="396.6" y="389.7" class="st0" width="44.5" height="0.3"/>
		<rect x="161.9" y="394.8" class="st0" width="11.1" height="0.3"/>
		<rect x="114.6" y="394.8" class="st0" width="38.4" height="0.3"/>
		<rect x="66.3" y="390.6" class="st0" width="27.7" height="0.3"/>
	</g>
	<g>
		<g>
			<path class="st1" d="M115,175.2c11.5,0,20.9-9.4,20.9-20.9c0-11.5-9.4-20.9-20.9-20.9h-2.6v41.8H115z"/>
			<circle class="st2" cx="112.4" cy="154.2" r="20.9"/>
			<path class="st1" d="M111.5,156.9c-15.4,0-28-12.6-28-28v-16.7c0-1.5,1.2-2.6,2.6-2.6c1.5,0,2.6,1.2,2.6,2.6v16.7
				c0,12.5,10.2,22.7,22.7,22.7c1.5,0,2.6,1.2,2.6,2.6S112.9,156.9,111.5,156.9z"/>
			<path class="st2" d="M62.8,126.9h46.5c3.2,0,5.5-3,4.7-6.1l-4-15.2c-0.6-2.1-2.5-3.6-4.7-3.6H66.9c-2.2,0-4.1,1.5-4.7,3.6
				l-4,15.2C57.3,123.9,59.6,126.9,62.8,126.9z"/>
		</g>
		<g>
			<path class="st1" d="M410.3,175.2c11.5,0,20.9-9.4,20.9-20.9c0-11.5-9.4-20.9-20.9-20.9h-2.6v41.8H410.3z"/>
			<circle class="st2" cx="407.7" cy="154.2" r="20.9"/>
			<path class="st1" d="M406.8,156.9c-15.4,0-28-12.6-28-28v-16.7c0-1.5,1.2-2.6,2.6-2.6c1.5,0,2.6,1.2,2.6,2.6v16.7
				c0,12.5,10.2,22.7,22.7,22.7c1.5,0,2.6,1.2,2.6,2.6S408.2,156.9,406.8,156.9z"/>
			<path class="st2" d="M358.1,126.9h46.5c3.2,0,5.5-3,4.7-6.1l-4-15.2c-0.6-2.1-2.5-3.6-4.7-3.6h-38.5c-2.2,0-4.1,1.5-4.7,3.6
				l-4,15.2C352.6,123.9,354.9,126.9,358.1,126.9z"/>
		</g>
		<g>
			<g>
				
					<rect x="134" y="257.4" transform="matrix(-1 -1.224647e-16 1.224647e-16 -1 283.169 573.8273)" class="st3" width="15.2" height="58.9"/>
				<polygon class="st4" points="92.8,316.4 143.2,316.4 150.8,247.4 100.4,247.4 				"/>
				<polygon class="st2" points="87.3,316.4 139.4,316.4 147,247.4 94.9,247.4 				"/>
				<polygon class="st5" points="135.6,310.9 142.1,252.8 98.7,252.8 92.3,310.9 				"/>
				<path class="st2" d="M126.7,296.9l0.3-2.4c1.6-14.6-7.5-27.6-19.3-27.6l0,0l-0.3,2.4C105.8,283.9,114.9,296.9,126.7,296.9
					L126.7,296.9z"/>
			</g>
			<g>
				<g>
					
						<rect x="59.1" y="316.4" transform="matrix(-1 -1.224647e-16 1.224647e-16 -1 163.0067 699.3024)" class="st3" width="44.8" height="66.5"/>
					<polygon class="st4" points="63.6,382.9 59.1,382.9 59.1,370.1 68.3,370.1 					"/>
					
						<rect x="184.8" y="316.4" transform="matrix(-1 -1.224647e-16 1.224647e-16 -1 414.3461 699.3024)" class="st3" width="44.8" height="66.5"/>
					
						<rect x="59.1" y="316.4" transform="matrix(-1 -1.224647e-16 1.224647e-16 -1 247.7738 691.4301)" class="st4" width="129.6" height="58.7"/>
					<polygon class="st4" points="184.2,382.9 188.7,382.9 188.7,370.1 179.5,370.1 					"/>
					
						<rect x="62.6" y="320" transform="matrix(-1 -1.224647e-16 1.224647e-16 -1 247.7738 663.7721)" class="st3" width="122.6" height="23.7"/>
					<path class="st4" d="M115.7,335.5h16.4c7.1,0,13.9-2.9,18.8-8.1l0,0H96.9l0,0C101.8,332.6,108.6,335.5,115.7,335.5z"/>
					
						<rect x="62.6" y="347.5" transform="matrix(-1 -1.224647e-16 1.224647e-16 -1 247.7738 718.7751)" class="st3" width="122.6" height="23.7"/>
					<path class="st4" d="M115.7,363h16.4c7.1,0,13.9-2.9,18.8-8.1l0,0H96.9l0,0C101.8,360.1,108.6,363,115.7,363z"/>
				</g>
			</g>
			<g>
				<path class="st3" d="M180.5,313.7h1.2c0-2.4,0-8.4,0.1-22.3c0.2-25.1,0.6-26.7,0.6-26.7l-2.8,11.6
					C177.9,289.1,180.1,302.1,180.5,313.7z"/>
				<path class="st3" d="M178.2,274.6c-4-4.7-12.5-6.1-21.1-7.3c-3.4-0.5,9,7.3,15,12.9c4.7,4.3,7.7,5.5,9,9.8
					C181.7,284.6,181.6,278.6,178.2,274.6z"/>
				<path class="st3" d="M183.5,283c4-4.7,12.5-6.1,21.1-7.3c3.4-0.5-9,7.3-15,12.9c-4.7,4.3-7.7,5.5-9,9.8
					C179.9,293,180,287.1,183.5,283z"/>
				<path class="st3" d="M181.8,263.6c3-5.7,10.5-11,18.9-13c3.3-0.8-7.6,10.4-11.8,17.7c-3.2,5.6-7.5,12.2-8.2,17
					C179.6,275.8,178.8,269.2,181.8,263.6z"/>
				<g>
					<path class="st4" d="M181.4,316.4L181.4,316.4c-3.5,0-6.5-1.8-6.7-4.1l-0.6-3.9h14.5l-0.6,3.9
						C187.9,314.6,185,316.4,181.4,316.4z"/>
					<polygon class="st4" points="189.6,309.9 173.2,309.9 172.7,305.6 190.1,305.6 					"/>
				</g>
			</g>
		</g>
		<g>
			<g>
				<g>
					<g>
						
							<rect x="169.5" y="81.1" transform="matrix(-1 -1.224647e-16 1.224647e-16 -1 499.2862 308.3653)" class="st3" width="160.2" height="146.1"/>
						
							<rect x="165.9" y="81.1" transform="matrix(-1 -1.224647e-16 1.224647e-16 -1 494.1139 308.3653)" class="st2" width="162.2" height="146.1"/>
						
							<rect x="180.5" y="79.5" transform="matrix(-1.836970e-16 1 -1 -1.836970e-16 401.2396 -92.8743)" class="st6" width="133" height="149.3"/>
						<polygon class="st5" points="303.4,220.7 244.6,87.7 224.7,87.7 283.4,220.7 						"/>
						<polygon class="st5" points="277.8,220.7 219,87.7 205.3,87.7 264,220.7 						"/>
						
							<rect x="157.5" y="150.3" transform="matrix(-1.836970e-16 1 -1 -1.836970e-16 378.1661 -69.8007)" class="st3" width="133" height="7.7"/>
						
							<rect x="208.8" y="150.3" transform="matrix(-1.836970e-16 1 -1 -1.836970e-16 429.4855 -121.1201)" class="st3" width="133" height="7.7"/>
						
							<rect x="150.5" y="148.9" transform="matrix(-1.836970e-16 1 -1 -1.836970e-16 375.3976 -67.7459)" class="st2" width="142.1" height="9.8"/>
						
							<rect x="201.9" y="148.9" transform="matrix(-1.836970e-16 1 -1 -1.836970e-16 426.717 -119.0654)" class="st2" width="142.1" height="9.8"/>
						
							<rect x="106.2" y="153.8" transform="matrix(-1.836970e-16 1 -1 -1.836970e-16 326.9325 -18.5672)" class="st3" width="133" height="0.7"/>
					</g>
				</g>
			</g>
			<g>
				<g>
					<path class="st3" d="M163.2,72.7h173.6c0.5,0,0.8,0.4,0.8,0.8l0,0c0,0.5-0.4,0.8-0.8,0.8H163.2c-0.5,0-0.8-0.4-0.8-0.8l0,0
						C162.4,73.1,162.8,72.7,163.2,72.7z"/>
					<path class="st3" d="M329.7,78.2L329.7,78.2c0.6,0,1.1-0.5,1.1-1.1v-2.4c0-0.6-0.5-1.1-1.1-1.1l0,0c-0.6,0-1.1,0.5-1.1,1.1v2.4
						C328.6,77.7,329.1,78.2,329.7,78.2z"/>
					<path class="st3" d="M175.8,78.2L175.8,78.2c0.6,0,1.1-0.5,1.1-1.1v-2.4c0-0.6-0.5-1.1-1.1-1.1l0,0c-0.6,0-1.1,0.5-1.1,1.1v2.4
						C174.7,77.7,175.2,78.2,175.8,78.2z"/>
				</g>
				
					<rect x="163.5" y="73.5" transform="matrix(-1 -1.224647e-16 1.224647e-16 -1 489.0943 261.5024)" class="st7" width="162.1" height="114.4"/>
			</g>
		</g>
		<g>
			<g>
				<path class="st6" d="M340.3,284.2h-28c-3,0-5.4-2.4-5.4-5.4v-12.9c0-3,2.4-5.4,5.4-5.4h28c3,0,5.4,2.4,5.4,5.4v12.9
					C345.7,281.8,343.3,284.2,340.3,284.2z"/>
				<path class="st3" d="M343.9,261.2h-35.1c-1,0-1.8-0.8-1.8-1.8v-1.5c0-1,0.8-1.8,1.8-1.8h35.1c1,0,1.8,0.8,1.8,1.8v1.5
					C345.7,260.4,344.9,261.2,343.9,261.2z"/>
			</g>
			<g>
				<path class="st4" d="M307.5,310.5c0,0,0.5,16.7,19.9,16.7c19.4,0,19.9-16.7,19.9-16.7H307.5z"/>
			</g>
			<g>
				<path class="st4" d="M351.8,310.5c0,0,0.5,16.7,19.9,16.7c19.4,0,19.9-16.7,19.9-16.7H351.8z"/>
			</g>
			<g>
				<path class="st4" d="M382,284.2h-38.4c-4.1,0-7.4-3.3-7.4-7.4v-19.6c0-4.1,3.3-7.4,7.4-7.4H382c4.1,0,7.4,3.3,7.4,7.4v19.6
					C389.4,280.9,386.1,284.2,382,284.2z"/>
				<path class="st2" d="M387,250.7h-48.2c-1.4,0-2.5-1.1-2.5-2.5v-2c0-1.4,1.1-2.5,2.5-2.5H387c1.4,0,2.5,1.1,2.5,2.5v2
					C389.4,249.6,388.3,250.7,387,250.7z"/>
			</g>
			<g>
				
					<rect x="292.9" y="300.3" transform="matrix(-1 -1.224647e-16 1.224647e-16 -1 590.8305 683.2035)" class="st3" width="5" height="82.6"/>
				<g>
					<g>
						<rect x="411.1" y="284.2" class="st3" width="27.3" height="16.1"/>
						
							<rect x="275.4" y="284.2" transform="matrix(-1 -1.224647e-16 1.224647e-16 -1 686.5741 584.4774)" class="st2" width="135.7" height="16.1"/>
					</g>
				</g>
				<g>
					<g>
						<rect x="411.1" y="327.1" class="st3" width="27.3" height="16.1"/>
						
							<rect x="275.4" y="327.1" transform="matrix(-1 -1.224647e-16 1.224647e-16 -1 686.5741 670.3704)" class="st2" width="135.7" height="16.1"/>
					</g>
				</g>
				
					<rect x="428.6" y="300.3" transform="matrix(-1 -1.224647e-16 1.224647e-16 -1 862.1924 683.2035)" class="st3" width="5" height="82.6"/>
				
					<rect x="406.1" y="300.3" transform="matrix(-1 -1.224647e-16 1.224647e-16 -1 817.2168 683.2035)" class="st2" width="5" height="82.6"/>
				
					<rect x="275.4" y="300.3" transform="matrix(-1 -1.224647e-16 1.224647e-16 -1 555.9313 683.2035)" class="st2" width="5" height="82.6"/>
			</g>
		</g>
	</g>
</g>
<g id="Background_Simple" class="st8">
	<g class="st9">
		<path class="st10" d="M424,265.3c10.1,46-18.1,75.7-57.1,74.3c-18.7-0.7-41-21.2-59.4-25.8c-24-6-44.8,1.8-67.7,2.9
			c-57,2.8-56.3-20.5-94.7-50.5c-27-21.1-70.6-18.8-85-55.7c-17.7-45.2,33-67,71.5-60.3c44.2,7.7,56.5-47.4,124.1-41.3
			C322,114.9,409.8,196,424,265.3z"/>
		<path class="st11" d="M424,265.3c10.1,46-18.1,75.7-57.1,74.3c-18.7-0.7-41-21.2-59.4-25.8c-24-6-44.8,1.8-67.7,2.9
			c-57,2.8-56.3-20.5-94.7-50.5c-27-21.1-70.6-18.8-85-55.7c-17.7-45.2,33-67,71.5-60.3c44.2,7.7,56.5-47.4,124.1-41.3
			C322,114.9,409.8,196,424,265.3z"/>
	</g>
</g>
<g id="Shadow_1_">
	<ellipse id="_x3C_Path_x3E__2_" class="st2" cx="250" cy="416.8" rx="193.9" ry="11.3"/>
</g>
<g id="Login">
	<g>
		<g class="st12">
			<path class="st13" d="M260.4,366H132.8c-4.2,0-7.8-3.4-8-7.6l-11.4-221.6c-0.2-4.2,3-7.6,7.2-7.6h127.6c4.2,0,7.8,3.4,8,7.6
				l11.4,221.6C267.9,362.6,264.6,366,260.4,366z"/>
			<path class="st14" d="M260.4,366H132.8c-4.2,0-7.8-3.4-8-7.6l-11.4-221.6c-0.2-4.2,3-7.6,7.2-7.6h127.6c4.2,0,7.8,3.4,8,7.6
				l11.4,221.6C267.9,362.6,264.6,366,260.4,366z"/>
		</g>
		<rect x="221.5" y="122" class="st13" width="14.1" height="1"/>
		<rect x="211.5" y="122" class="st13" width="5.2" height="1"/>
		<path class="st13" d="M265.9,352h-122c-4,0-7.5-3.3-7.7-7.3l-10.9-211.9c-0.2-4,2.9-7.3,6.9-7.3h122c4,0,7.5,3.3,7.7,7.3
			l10.9,211.9C273,348.7,269.9,352,265.9,352z"/>
		
			<ellipse transform="matrix(0.6979 -0.7162 0.7162 0.6979 -70.4932 195.1437)" class="st15" cx="196.1" cy="181.1" rx="36" ry="37.9"/>
		<path class="st5" d="M226,181.1c0.3,5.2-0.8,10-2.9,14.2c-4.6,9.3-14.1,15.6-25.5,15.6s-21.6-6.3-27.1-15.6
			c-2.5-4.2-4.1-9.1-4.3-14.2c-0.9-16.5,11.8-29.9,28.3-29.9S225.1,164.6,226,181.1z"/>
		<path class="st13" d="M223.1,195.4c-4.6,9.3-14.1,15.6-25.5,15.6s-21.6-6.3-27.1-15.6c7.3-5,16.1-8,25.9-8
			S215.3,190.3,223.1,195.4z"/>
		
			<ellipse transform="matrix(0.6979 -0.7162 0.7162 0.6979 -63.3305 191.6806)" class="st13" cx="195.6" cy="170.9" rx="13" ry="13.7"/>
		<g>
			<path class="st5" d="M248.4,269.5h-95.5c-1.7,0-3.2-1.4-3.2-3.1l-0.7-14c-0.1-1.7,1.2-3.1,2.9-3.1h95.5c1.7,0,3.2,1.4,3.2,3.1
				l0.7,14C251.4,268.2,250.1,269.5,248.4,269.5z"/>
			<path class="st16" d="M219.2,241.6h-39.9c-1.7,0-3.2-1.4-3.2-3.1l-0.2-3c-0.1-1.7,1.2-3.1,2.9-3.1h39.9c1.7,0,3.2,1.4,3.2,3.1
				l0.2,3C222.2,240.2,220.9,241.6,219.2,241.6z"/>
			<path class="st16" d="M234,336.8h-59.8c-2.9,0-5.4-2.4-5.5-5.3l-0.4-6.9c-0.1-2.9,2.1-5.3,5-5.3h59.8c2.9,0,5.4,2.4,5.5,5.3
				l0.4,6.9C239.1,334.5,236.9,336.8,234,336.8z"/>
			<path class="st5" d="M250.2,303.4h-95.5c-1.7,0-3.2-1.4-3.2-3.1l-0.7-14c-0.1-1.7,1.2-3.1,2.9-3.1h95.5c1.7,0,3.2,1.4,3.2,3.1
				l0.7,14C253.2,302,251.9,303.4,250.2,303.4z"/>
			<path class="st17" d="M165,259.4c0.1,1.9-1.4,3.4-3.2,3.4s-3.5-1.5-3.6-3.4c-0.1-1.9,1.4-3.4,3.2-3.4S164.9,257.6,165,259.4z"/>
			<path class="st17" d="M175.5,259.4c0.1,1.9-1.4,3.4-3.2,3.4c-1.9,0-3.5-1.5-3.6-3.4c-0.1-1.9,1.4-3.4,3.2-3.4
				S175.4,257.6,175.5,259.4z"/>
			<path class="st17" d="M186,259.4c0.1,1.9-1.4,3.4-3.2,3.4c-1.9,0-3.5-1.5-3.6-3.4c-0.1-1.9,1.4-3.4,3.2-3.4
				S185.9,257.6,186,259.4z"/>
			<path class="st17" d="M196.5,259.4c0.1,1.9-1.4,3.4-3.2,3.4s-3.5-1.5-3.6-3.4c-0.1-1.9,1.4-3.4,3.2-3.4
				C194.8,256,196.5,257.6,196.5,259.4z"/>
			<path class="st17" d="M166.8,293.3c0.1,1.9-1.4,3.4-3.2,3.4c-1.9,0-3.5-1.5-3.6-3.4s1.4-3.4,3.2-3.4S166.7,291.4,166.8,293.3z"/>
			<path class="st17" d="M177.3,293.3c0.1,1.9-1.4,3.4-3.2,3.4c-1.9,0-3.5-1.5-3.6-3.4c-0.1-1.9,1.4-3.4,3.2-3.4
				S177.2,291.4,177.3,293.3z"/>
			<path class="st17" d="M187.8,293.3c0.1,1.9-1.4,3.4-3.2,3.4c-1.9,0-3.5-1.5-3.6-3.4c-0.1-1.9,1.4-3.4,3.2-3.4
				C186.1,289.9,187.7,291.4,187.8,293.3z"/>
			<path class="st17" d="M198.3,293.3c0.1,1.9-1.4,3.4-3.2,3.4c-1.9,0-3.5-1.5-3.6-3.4c-0.1-1.9,1.4-3.4,3.2-3.4
				C196.6,289.9,198.2,291.4,198.3,293.3z"/>
			<path class="st17" d="M208.8,293.3c0.1,1.9-1.4,3.4-3.2,3.4s-3.5-1.5-3.6-3.4s1.4-3.4,3.2-3.4S208.7,291.4,208.8,293.3z"/>
			<path class="st17" d="M219.3,293.3c0.1,1.9-1.4,3.4-3.2,3.4c-1.9,0-3.5-1.5-3.6-3.4c-0.1-1.9,1.4-3.4,3.2-3.4
				S219.2,291.4,219.3,293.3z"/>
		</g>
	</g>
</g>
<g id="Character_1_">
</g>
</svg>
